<?xml version="1.0" encoding="UTF-8" standalone="no" ?>
<!DOCTYPE svg PUBLIC "-//W3C//DTD SVG 1.1//EN" "http://www.w3.org/Graphics/SVG/1.1/DTD/svg11.dtd">
<svg xmlns="http://www.w3.org/2000/svg" xmlns:xlink="http://www.w3.org/1999/xlink" version="1.1" width="600" height="600" viewBox="0 0 600 600" xml:space="preserve">
<g transform="matrix(1 0 0 1 300.5 300.5)"  >
<rect style="stroke: none; stroke-width: 1; stroke-dasharray: none; stroke-linecap: butt; stroke-dashoffset: 0; stroke-linejoin: miter; stroke-miterlimit: 4; fill: none; fill-rule: nonzero; opacity: 1;"  x="-300" y="-300" rx="0" ry="0" width="600" height="600" />
</g>
<g transform="matrix(0.31 0 0 0.31 60 60)"  >
<circle style="stroke: none; stroke-width: 1; stroke-dasharray: none; stroke-linecap: butt; stroke-dashoffset: 0; stroke-linejoin: miter; stroke-miterlimit: 4; fill: #292929; fill-rule: nonzero; opacity: 1;"  cx="0" cy="0" r="16" />
</g>
<g transform="matrix(0.31 0 0 0.31 60 113)"  >
<circle style="stroke: none; stroke-width: 1; stroke-dasharray: none; stroke-linecap: butt; stroke-dashoffset: 0; stroke-linejoin: miter; stroke-miterlimit: 4; fill: #292929; fill-rule: nonzero; opacity: 1;"  cx="0" cy="0" r="16" />
</g>
<g transform="matrix(0.31 0 0 0.31 60 166)"  >
<circle style="stroke: none; stroke-width: 1; stroke-dasharray: none; stroke-linecap: butt; stroke-dashoffset: 0; stroke-linejoin: miter; stroke-miterlimit: 4; fill: #292929; fill-rule: nonzero; opacity: 1;"  cx="0" cy="0" r="16" />
</g>
<g transform="matrix(0.31 0 0 0.31 60 220)"  >
<circle style="stroke: none; stroke-width: 1; stroke-dasharray: none; stroke-linecap: butt; stroke-dashoffset: 0; stroke-linejoin: miter; stroke-miterlimit: 4; fill: #292929; fill-rule: nonzero; opacity: 1;"  cx="0" cy="0" r="16" />
</g>
<g transform="matrix(0.31 0 0 0.31 60 273)"  >
<circle style="stroke: none; stroke-width: 1; stroke-dasharray: none; stroke-linecap: butt; stroke-dashoffset: 0; stroke-linejoin: miter; stroke-miterlimit: 4; fill: #292929; fill-rule: nonzero; opacity: 1;"  cx="0" cy="0" r="16" />
</g>
<g transform="matrix(0.31 0 0 0.31 60 326)"  >
<circle style="stroke: none; stroke-width: 1; stroke-dasharray: none; stroke-linecap: butt; stroke-dashoffset: 0; stroke-linejoin: miter; stroke-miterlimit: 4; fill: #292929; fill-rule: nonzero; opacity: 1;"  cx="0" cy="0" r="16" />
</g>
<g transform="matrix(0.31 0 0 0.31 113 60)"  >
<circle style="stroke: none; stroke-width: 1; stroke-dasharray: none; stroke-linecap: butt; stroke-dashoffset: 0; stroke-linejoin: miter; stroke-miterlimit: 4; fill: #292929; fill-rule: nonzero; opacity: 1;"  cx="0" cy="0" r="16" />
</g>
<g transform="matrix(0.31 0 0 0.31 113 113)"  >
<circle style="stroke: none; stroke-width: 1; stroke-dasharray: none; stroke-linecap: butt; stroke-dashoffset: 0; stroke-linejoin: miter; stroke-miterlimit: 4; fill: #292929; fill-rule: nonzero; opacity: 1;"  cx="0" cy="0" r="16" />
</g>
<g transform="matrix(0.31 0 0 0.31 113 166)"  >
<circle style="stroke: none; stroke-width: 1; stroke-dasharray: none; stroke-linecap: butt; stroke-dashoffset: 0; stroke-linejoin: miter; stroke-miterlimit: 4; fill: #292929; fill-rule: nonzero; opacity: 1;"  cx="0" cy="0" r="16" />
</g>
<g transform="matrix(0.31 0 0 0.31 113 220)"  >
<circle style="stroke: none; stroke-width: 1; stroke-dasharray: none; stroke-linecap: butt; stroke-dashoffset: 0; stroke-linejoin: miter; stroke-miterlimit: 4; fill: #292929; fill-rule: nonzero; opacity: 1;"  cx="0" cy="0" r="16" />
</g>
<g transform="matrix(0.31 0 0 0.31 113 273)"  >
<circle style="stroke: none; stroke-width: 1; stroke-dasharray: none; stroke-linecap: butt; stroke-dashoffset: 0; stroke-linejoin: miter; stroke-miterlimit: 4; fill: #292929; fill-rule: nonzero; opacity: 1;"  cx="0" cy="0" r="16" />
</g>
<g transform="matrix(0.31 0 0 0.31 113 326)"  >
<circle style="stroke: none; stroke-width: 1; stroke-dasharray: none; stroke-linecap: butt; stroke-dashoffset: 0; stroke-linejoin: miter; stroke-miterlimit: 4; fill: #292929; fill-rule: nonzero; opacity: 1;"  cx="0" cy="0" r="16" />
</g>
<g transform="matrix(0.31 0 0 0.31 166 60)"  >
<circle style="stroke: none; stroke-width: 1; stroke-dasharray: none; stroke-linecap: butt; stroke-dashoffset: 0; stroke-linejoin: miter; stroke-miterlimit: 4; fill: #292929; fill-rule: nonzero; opacity: 1;"  cx="0" cy="0" r="16" />
</g>
<g transform="matrix(0.31 0 0 0.31 166 113)"  >
<circle style="stroke: none; stroke-width: 1; stroke-dasharray: none; stroke-linecap: butt; stroke-dashoffset: 0; stroke-linejoin: miter; stroke-miterlimit: 4; fill: #292929; fill-rule: nonzero; opacity: 1;"  cx="0" cy="0" r="16" />
</g>
<g transform="matrix(0.31 0 0 0.31 166 166)"  >
<circle style="stroke: none; stroke-width: 1; stroke-dasharray: none; stroke-linecap: butt; stroke-dashoffset: 0; stroke-linejoin: miter; stroke-miterlimit: 4; fill: #292929; fill-rule: nonzero; opacity: 1;"  cx="0" cy="0" r="16" />
</g>
<g transform="matrix(0.31 0 0 0.31 166 220)"  >
<circle style="stroke: none; stroke-width: 1; stroke-dasharray: none; stroke-linecap: butt; stroke-dashoffset: 0; stroke-linejoin: miter; stroke-miterlimit: 4; fill: #292929; fill-rule: nonzero; opacity: 1;"  cx="0" cy="0" r="16" />
</g>
<g transform="matrix(0.31 0 0 0.31 166 273)"  >
<circle style="stroke: none; stroke-width: 1; stroke-dasharray: none; stroke-linecap: butt; stroke-dashoffset: 0; stroke-linejoin: miter; stroke-miterlimit: 4; fill: #292929; fill-rule: nonzero; opacity: 1;"  cx="0" cy="0" r="16" />
</g>
<g transform="matrix(0.31 0 0 0.31 166 326)"  >
<circle style="stroke: none; stroke-width: 1; stroke-dasharray: none; stroke-linecap: butt; stroke-dashoffset: 0; stroke-linejoin: miter; stroke-miterlimit: 4; fill: #292929; fill-rule: nonzero; opacity: 1;"  cx="0" cy="0" r="16" />
</g>
<g transform="matrix(0.31 0 0 0.31 220 60)"  >
<circle style="stroke: none; stroke-width: 1; stroke-dasharray: none; stroke-linecap: butt; stroke-dashoffset: 0; stroke-linejoin: miter; stroke-miterlimit: 4; fill: #292929; fill-rule: nonzero; opacity: 1;"  cx="0" cy="0" r="16" />
</g>
<g transform="matrix(0.31 0 0 0.31 220 113)"  >
<circle style="stroke: none; stroke-width: 1; stroke-dasharray: none; stroke-linecap: butt; stroke-dashoffset: 0; stroke-linejoin: miter; stroke-miterlimit: 4; fill: #292929; fill-rule: nonzero; opacity: 1;"  cx="0" cy="0" r="16" />
</g>
<g transform="matrix(0.31 0 0 0.31 220 166)"  >
<circle style="stroke: none; stroke-width: 1; stroke-dasharray: none; stroke-linecap: butt; stroke-dashoffset: 0; stroke-linejoin: miter; stroke-miterlimit: 4; fill: #292929; fill-rule: nonzero; opacity: 1;"  cx="0" cy="0" r="16" />
</g>
<g transform="matrix(0.31 0 0 0.31 220 220)"  >
<circle style="stroke: none; stroke-width: 1; stroke-dasharray: none; stroke-linecap: butt; stroke-dashoffset: 0; stroke-linejoin: miter; stroke-miterlimit: 4; fill: #292929; fill-rule: nonzero; opacity: 1;"  cx="0" cy="0" r="16" />
</g>
<g transform="matrix(0.31 0 0 0.31 220 273)"  >
<circle style="stroke: none; stroke-width: 1; stroke-dasharray: none; stroke-linecap: butt; stroke-dashoffset: 0; stroke-linejoin: miter; stroke-miterlimit: 4; fill: #292929; fill-rule: nonzero; opacity: 1;"  cx="0" cy="0" r="16" />
</g>
<g transform="matrix(0.31 0 0 0.31 220 326)"  >
<circle style="stroke: none; stroke-width: 1; stroke-dasharray: none; stroke-linecap: butt; stroke-dashoffset: 0; stroke-linejoin: miter; stroke-miterlimit: 4; fill: #292929; fill-rule: nonzero; opacity: 1;"  cx="0" cy="0" r="16" />
</g>
<g transform="matrix(0.31 0 0 0.31 273 60)"  >
<circle style="stroke: none; stroke-width: 1; stroke-dasharray: none; stroke-linecap: butt; stroke-dashoffset: 0; stroke-linejoin: miter; stroke-miterlimit: 4; fill: #292929; fill-rule: nonzero; opacity: 1;"  cx="0" cy="0" r="16" />
</g>
<g transform="matrix(0.31 0 0 0.31 273 113)"  >
<circle style="stroke: none; stroke-width: 1; stroke-dasharray: none; stroke-linecap: butt; stroke-dashoffset: 0; stroke-linejoin: miter; stroke-miterlimit: 4; fill: #292929; fill-rule: nonzero; opacity: 1;"  cx="0" cy="0" r="16" />
</g>
<g transform="matrix(0.31 0 0 0.31 273 166)"  >
<circle style="stroke: none; stroke-width: 1; stroke-dasharray: none; stroke-linecap: butt; stroke-dashoffset: 0; stroke-linejoin: miter; stroke-miterlimit: 4; fill: #292929; fill-rule: nonzero; opacity: 1;"  cx="0" cy="0" r="16" />
</g>
<g transform="matrix(0.31 0 0 0.31 273 220)"  >
<circle style="stroke: none; stroke-width: 1; stroke-dasharray: none; stroke-linecap: butt; stroke-dashoffset: 0; stroke-linejoin: miter; stroke-miterlimit: 4; fill: #292929; fill-rule: nonzero; opacity: 1;"  cx="0" cy="0" r="16" />
</g>
<g transform="matrix(0.31 0 0 0.31 273 273)"  >
<circle style="stroke: none; stroke-width: 1; stroke-dasharray: none; stroke-linecap: butt; stroke-dashoffset: 0; stroke-linejoin: miter; stroke-miterlimit: 4; fill: #292929; fill-rule: nonzero; opacity: 1;"  cx="0" cy="0" r="16" />
</g>
<g transform="matrix(0.31 0 0 0.31 273 326)"  >
<circle style="stroke: none; stroke-width: 1; stroke-dasharray: none; stroke-linecap: butt; stroke-dashoffset: 0; stroke-linejoin: miter; stroke-miterlimit: 4; fill: #292929; fill-rule: nonzero; opacity: 1;"  cx="0" cy="0" r="16" />
</g>
<g transform="matrix(0.31 0 0 0.31 326 60)"  >
<circle style="stroke: none; stroke-width: 1; stroke-dasharray: none; stroke-linecap: butt; stroke-dashoffset: 0; stroke-linejoin: miter; stroke-miterlimit: 4; fill: #292929; fill-rule: nonzero; opacity: 1;"  cx="0" cy="0" r="16" />
</g>
<g transform="matrix(0.31 0 0 0.31 326 113)"  >
<circle style="stroke: none; stroke-width: 1; stroke-dasharray: none; stroke-linecap: butt; stroke-dashoffset: 0; stroke-linejoin: miter; stroke-miterlimit: 4; fill: #292929; fill-rule: nonzero; opacity: 1;"  cx="0" cy="0" r="16" />
</g>
<g transform="matrix(0.31 0 0 0.31 326 166)"  >
<circle style="stroke: none; stroke-width: 1; stroke-dasharray: none; stroke-linecap: butt; stroke-dashoffset: 0; stroke-linejoin: miter; stroke-miterlimit: 4; fill: #292929; fill-rule: nonzero; opacity: 1;"  cx="0" cy="0" r="16" />
</g>
<g transform="matrix(0.31 0 0 0.31 326 220)"  >
<circle style="stroke: none; stroke-width: 1; stroke-dasharray: none; stroke-linecap: butt; stroke-dashoffset: 0; stroke-linejoin: miter; stroke-miterlimit: 4; fill: #292929; fill-rule: nonzero; opacity: 1;"  cx="0" cy="0" r="16" />
</g>
<g transform="matrix(0.31 0 0 0.31 326 273)"  >
<circle style="stroke: none; stroke-width: 1; stroke-dasharray: none; stroke-linecap: butt; stroke-dashoffset: 0; stroke-linejoin: miter; stroke-miterlimit: 4; fill: #292929; fill-rule: nonzero; opacity: 1;"  cx="0" cy="0" r="16" />
</g>
<g transform="matrix(0.31 0 0 0.31 326 326)"  >
<circle style="stroke: none; stroke-width: 1; stroke-dasharray: none; stroke-linecap: butt; stroke-dashoffset: 0; stroke-linejoin: miter; stroke-miterlimit: 4; fill: #292929; fill-rule: nonzero; opacity: 1;"  cx="0" cy="0" r="16" />
</g>
<g transform="matrix(0.31 0 0 0.31 380 60)"  >
<circle style="stroke: none; stroke-width: 1; stroke-dasharray: none; stroke-linecap: butt; stroke-dashoffset: 0; stroke-linejoin: miter; stroke-miterlimit: 4; fill: #292929; fill-rule: nonzero; opacity: 1;"  cx="0" cy="0" r="16" />
</g>
<g transform="matrix(0.31 0 0 0.31 380 113)"  >
<circle style="stroke: none; stroke-width: 1; stroke-dasharray: none; stroke-linecap: butt; stroke-dashoffset: 0; stroke-linejoin: miter; stroke-miterlimit: 4; fill: #292929; fill-rule: nonzero; opacity: 1;"  cx="0" cy="0" r="16" />
</g>
<g transform="matrix(0.31 0 0 0.31 380 166)"  >
<circle style="stroke: none; stroke-width: 1; stroke-dasharray: none; stroke-linecap: butt; stroke-dashoffset: 0; stroke-linejoin: miter; stroke-miterlimit: 4; fill: #292929; fill-rule: nonzero; opacity: 1;"  cx="0" cy="0" r="16" />
</g>
<g transform="matrix(0.31 0 0 0.31 380 220)"  >
<circle style="stroke: none; stroke-width: 1; stroke-dasharray: none; stroke-linecap: butt; stroke-dashoffset: 0; stroke-linejoin: miter; stroke-miterlimit: 4; fill: #292929; fill-rule: nonzero; opacity: 1;"  cx="0" cy="0" r="16" />
</g>
<g transform="matrix(0.31 0 0 0.31 380 273)"  >
<circle style="stroke: none; stroke-width: 1; stroke-dasharray: none; stroke-linecap: butt; stroke-dashoffset: 0; stroke-linejoin: miter; stroke-miterlimit: 4; fill: #292929; fill-rule: nonzero; opacity: 1;"  cx="0" cy="0" r="16" />
</g>
<g transform="matrix(0.31 0 0 0.31 380 326)"  >
<circle style="stroke: none; stroke-width: 1; stroke-dasharray: none; stroke-linecap: butt; stroke-dashoffset: 0; stroke-linejoin: miter; stroke-miterlimit: 4; fill: #292929; fill-rule: nonzero; opacity: 1;"  cx="0" cy="0" r="16" />
</g>
</svg>
