<?xml version="1.0" encoding="UTF-8" standalone="no" ?>
<!DOCTYPE svg PUBLIC "-//W3C//DTD SVG 1.1//EN" "http://www.w3.org/Graphics/SVG/1.1/DTD/svg11.dtd">
<svg xmlns="http://www.w3.org/2000/svg" xmlns:xlink="http://www.w3.org/1999/xlink" version="1.1" width="600" height="600" viewBox="0 0 600 600" xml:space="preserve">
<desc>Created with Fabric.js 4.0.0-beta.8</desc>
<defs>
</defs>
<g transform="matrix(1 0 0 1 300.5 300.5)"  >
<rect style="stroke: none; stroke-width: 1; stroke-dasharray: none; stroke-linecap: butt; stroke-dashoffset: 0; stroke-linejoin: miter; stroke-miterlimit: 4; fill: rgb(255,255,255); fill-rule: nonzero; opacity: 1;"  x="-300" y="-300" rx="0" ry="0" width="600" height="600" />
</g>
<g transform="matrix(0.31 0 0 0.31 138 138)"  >
<circle style="stroke: none; stroke-width: 1; stroke-dasharray: none; stroke-linecap: butt; stroke-dashoffset: 0; stroke-linejoin: miter; stroke-miterlimit: 4; fill: rgb(41,41,41); fill-rule: nonzero; opacity: 1;"  cx="0" cy="0" r="16" />
</g>
<g transform="matrix(0.31 0 0 0.31 192 138)"  >
<circle style="stroke: none; stroke-width: 1; stroke-dasharray: none; stroke-linecap: butt; stroke-dashoffset: 0; stroke-linejoin: miter; stroke-miterlimit: 4; fill: rgb(41,41,41); fill-rule: nonzero; opacity: 1;"  cx="0" cy="0" r="16" />
</g>
<g transform="matrix(0.31 0 0 0.31 246 138)"  >
<circle style="stroke: none; stroke-width: 1; stroke-dasharray: none; stroke-linecap: butt; stroke-dashoffset: 0; stroke-linejoin: miter; stroke-miterlimit: 4; fill: rgb(41,41,41); fill-rule: nonzero; opacity: 1;"  cx="0" cy="0" r="16" />
</g>
<g transform="matrix(0.31 0 0 0.31 300 138)"  >
<circle style="stroke: none; stroke-width: 1; stroke-dasharray: none; stroke-linecap: butt; stroke-dashoffset: 0; stroke-linejoin: miter; stroke-miterlimit: 4; fill: rgb(41,41,41); fill-rule: nonzero; opacity: 1;"  cx="0" cy="0" r="16" />
</g>
<g transform="matrix(0.31 0 0 0.31 354 138)"  >
<circle style="stroke: none; stroke-width: 1; stroke-dasharray: none; stroke-linecap: butt; stroke-dashoffset: 0; stroke-linejoin: miter; stroke-miterlimit: 4; fill: rgb(41,41,41); fill-rule: nonzero; opacity: 1;"  cx="0" cy="0" r="16" />
</g>
<g transform="matrix(0.31 0 0 0.31 408 138)"  >
<circle style="stroke: none; stroke-width: 1; stroke-dasharray: none; stroke-linecap: butt; stroke-dashoffset: 0; stroke-linejoin: miter; stroke-miterlimit: 4; fill: rgb(41,41,41); fill-rule: nonzero; opacity: 1;"  cx="0" cy="0" r="16" />
</g>
<g transform="matrix(0.31 0 0 0.31 462 138)"  >
<circle style="stroke: none; stroke-width: 1; stroke-dasharray: none; stroke-linecap: butt; stroke-dashoffset: 0; stroke-linejoin: miter; stroke-miterlimit: 4; fill: rgb(41,41,41); fill-rule: nonzero; opacity: 1;"  cx="0" cy="0" r="16" />
</g>
<g transform="matrix(0.31 0 0 0.31 165 192)"  >
<circle style="stroke: none; stroke-width: 1; stroke-dasharray: none; stroke-linecap: butt; stroke-dashoffset: 0; stroke-linejoin: miter; stroke-miterlimit: 4; fill: rgb(41,41,41); fill-rule: nonzero; opacity: 1;"  cx="0" cy="0" r="16" />
</g>
<g transform="matrix(0.31 0 0 0.31 219 192)"  >
<circle style="stroke: none; stroke-width: 1; stroke-dasharray: none; stroke-linecap: butt; stroke-dashoffset: 0; stroke-linejoin: miter; stroke-miterlimit: 4; fill: rgb(41,41,41); fill-rule: nonzero; opacity: 1;"  cx="0" cy="0" r="16" />
</g>
<g transform="matrix(0.31 0 0 0.31 273 192)"  >
<circle style="stroke: none; stroke-width: 1; stroke-dasharray: none; stroke-linecap: butt; stroke-dashoffset: 0; stroke-linejoin: miter; stroke-miterlimit: 4; fill: rgb(41,41,41); fill-rule: nonzero; opacity: 1;"  cx="0" cy="0" r="16" />
</g>
<g transform="matrix(0.31 0 0 0.31 327 192)"  >
<circle style="stroke: none; stroke-width: 1; stroke-dasharray: none; stroke-linecap: butt; stroke-dashoffset: 0; stroke-linejoin: miter; stroke-miterlimit: 4; fill: rgb(41,41,41); fill-rule: nonzero; opacity: 1;"  cx="0" cy="0" r="16" />
</g>
<g transform="matrix(0.31 0 0 0.31 381 192)"  >
<circle style="stroke: none; stroke-width: 1; stroke-dasharray: none; stroke-linecap: butt; stroke-dashoffset: 0; stroke-linejoin: miter; stroke-miterlimit: 4; fill: rgb(41,41,41); fill-rule: nonzero; opacity: 1;"  cx="0" cy="0" r="16" />
</g>
<g transform="matrix(0.31 0 0 0.31 435 192)"  >
<circle style="stroke: none; stroke-width: 1; stroke-dasharray: none; stroke-linecap: butt; stroke-dashoffset: 0; stroke-linejoin: miter; stroke-miterlimit: 4; fill: rgb(41,41,41); fill-rule: nonzero; opacity: 1;"  cx="0" cy="0" r="16" />
</g>
<g transform="matrix(0.31 0 0 0.31 138 246)"  >
<circle style="stroke: none; stroke-width: 1; stroke-dasharray: none; stroke-linecap: butt; stroke-dashoffset: 0; stroke-linejoin: miter; stroke-miterlimit: 4; fill: rgb(41,41,41); fill-rule: nonzero; opacity: 1;"  cx="0" cy="0" r="16" />
</g>
<g transform="matrix(0.31 0 0 0.31 192 246)"  >
<circle style="stroke: none; stroke-width: 1; stroke-dasharray: none; stroke-linecap: butt; stroke-dashoffset: 0; stroke-linejoin: miter; stroke-miterlimit: 4; fill: rgb(41,41,41); fill-rule: nonzero; opacity: 1;"  cx="0" cy="0" r="16" />
</g>
<g transform="matrix(0.31 0 0 0.31 246 246)"  >
<circle style="stroke: none; stroke-width: 1; stroke-dasharray: none; stroke-linecap: butt; stroke-dashoffset: 0; stroke-linejoin: miter; stroke-miterlimit: 4; fill: rgb(41,41,41); fill-rule: nonzero; opacity: 1;"  cx="0" cy="0" r="16" />
</g>
<g transform="matrix(0.31 0 0 0.31 300 246)"  >
<circle style="stroke: none; stroke-width: 1; stroke-dasharray: none; stroke-linecap: butt; stroke-dashoffset: 0; stroke-linejoin: miter; stroke-miterlimit: 4; fill: rgb(41,41,41); fill-rule: nonzero; opacity: 1;"  cx="0" cy="0" r="16" />
</g>
<g transform="matrix(0.31 0 0 0.31 354 246)"  >
<circle style="stroke: none; stroke-width: 1; stroke-dasharray: none; stroke-linecap: butt; stroke-dashoffset: 0; stroke-linejoin: miter; stroke-miterlimit: 4; fill: rgb(41,41,41); fill-rule: nonzero; opacity: 1;"  cx="0" cy="0" r="16" />
</g>
<g transform="matrix(0.31 0 0 0.31 408 246)"  >
<circle style="stroke: none; stroke-width: 1; stroke-dasharray: none; stroke-linecap: butt; stroke-dashoffset: 0; stroke-linejoin: miter; stroke-miterlimit: 4; fill: rgb(41,41,41); fill-rule: nonzero; opacity: 1;"  cx="0" cy="0" r="16" />
</g>
<g transform="matrix(0.31 0 0 0.31 462 246)"  >
<circle style="stroke: none; stroke-width: 1; stroke-dasharray: none; stroke-linecap: butt; stroke-dashoffset: 0; stroke-linejoin: miter; stroke-miterlimit: 4; fill: rgb(41,41,41); fill-rule: nonzero; opacity: 1;"  cx="0" cy="0" r="16" />
</g>
<g transform="matrix(0.31 0 0 0.31 165 300)"  >
<circle style="stroke: none; stroke-width: 1; stroke-dasharray: none; stroke-linecap: butt; stroke-dashoffset: 0; stroke-linejoin: miter; stroke-miterlimit: 4; fill: rgb(41,41,41); fill-rule: nonzero; opacity: 1;"  cx="0" cy="0" r="16" />
</g>
<g transform="matrix(0.31 0 0 0.31 219 300)"  >
<circle style="stroke: none; stroke-width: 1; stroke-dasharray: none; stroke-linecap: butt; stroke-dashoffset: 0; stroke-linejoin: miter; stroke-miterlimit: 4; fill: rgb(41,41,41); fill-rule: nonzero; opacity: 1;"  cx="0" cy="0" r="16" />
</g>
<g transform="matrix(0.31 0 0 0.31 273 300)"  >
<circle style="stroke: none; stroke-width: 1; stroke-dasharray: none; stroke-linecap: butt; stroke-dashoffset: 0; stroke-linejoin: miter; stroke-miterlimit: 4; fill: rgb(41,41,41); fill-rule: nonzero; opacity: 1;"  cx="0" cy="0" r="16" />
</g>
<g transform="matrix(0.31 0 0 0.31 327 300)"  >
<circle style="stroke: none; stroke-width: 1; stroke-dasharray: none; stroke-linecap: butt; stroke-dashoffset: 0; stroke-linejoin: miter; stroke-miterlimit: 4; fill: rgb(41,41,41); fill-rule: nonzero; opacity: 1;"  cx="0" cy="0" r="16" />
</g>
<g transform="matrix(0.31 0 0 0.31 381 300)"  >
<circle style="stroke: none; stroke-width: 1; stroke-dasharray: none; stroke-linecap: butt; stroke-dashoffset: 0; stroke-linejoin: miter; stroke-miterlimit: 4; fill: rgb(41,41,41); fill-rule: nonzero; opacity: 1;"  cx="0" cy="0" r="16" />
</g>
<g transform="matrix(0.31 0 0 0.31 435 300)"  >
<circle style="stroke: none; stroke-width: 1; stroke-dasharray: none; stroke-linecap: butt; stroke-dashoffset: 0; stroke-linejoin: miter; stroke-miterlimit: 4; fill: rgb(41,41,41); fill-rule: nonzero; opacity: 1;"  cx="0" cy="0" r="16" />
</g>
<g transform="matrix(0.31 0 0 0.31 138 354)"  >
<circle style="stroke: none; stroke-width: 1; stroke-dasharray: none; stroke-linecap: butt; stroke-dashoffset: 0; stroke-linejoin: miter; stroke-miterlimit: 4; fill: rgb(41,41,41); fill-rule: nonzero; opacity: 1;"  cx="0" cy="0" r="16" />
</g>
<g transform="matrix(0.31 0 0 0.31 192 354)"  >
<circle style="stroke: none; stroke-width: 1; stroke-dasharray: none; stroke-linecap: butt; stroke-dashoffset: 0; stroke-linejoin: miter; stroke-miterlimit: 4; fill: rgb(41,41,41); fill-rule: nonzero; opacity: 1;"  cx="0" cy="0" r="16" />
</g>
<g transform="matrix(0.31 0 0 0.31 246 354)"  >
<circle style="stroke: none; stroke-width: 1; stroke-dasharray: none; stroke-linecap: butt; stroke-dashoffset: 0; stroke-linejoin: miter; stroke-miterlimit: 4; fill: rgb(41,41,41); fill-rule: nonzero; opacity: 1;"  cx="0" cy="0" r="16" />
</g>
<g transform="matrix(0.31 0 0 0.31 300 354)"  >
<circle style="stroke: none; stroke-width: 1; stroke-dasharray: none; stroke-linecap: butt; stroke-dashoffset: 0; stroke-linejoin: miter; stroke-miterlimit: 4; fill: rgb(41,41,41); fill-rule: nonzero; opacity: 1;"  cx="0" cy="0" r="16" />
</g>
<g transform="matrix(0.31 0 0 0.31 354 354)"  >
<circle style="stroke: none; stroke-width: 1; stroke-dasharray: none; stroke-linecap: butt; stroke-dashoffset: 0; stroke-linejoin: miter; stroke-miterlimit: 4; fill: rgb(41,41,41); fill-rule: nonzero; opacity: 1;"  cx="0" cy="0" r="16" />
</g>
<g transform="matrix(0.31 0 0 0.31 408 354)"  >
<circle style="stroke: none; stroke-width: 1; stroke-dasharray: none; stroke-linecap: butt; stroke-dashoffset: 0; stroke-linejoin: miter; stroke-miterlimit: 4; fill: rgb(41,41,41); fill-rule: nonzero; opacity: 1;"  cx="0" cy="0" r="16" />
</g>
<g transform="matrix(0.31 0 0 0.31 462 354)"  >
<circle style="stroke: none; stroke-width: 1; stroke-dasharray: none; stroke-linecap: butt; stroke-dashoffset: 0; stroke-linejoin: miter; stroke-miterlimit: 4; fill: rgb(41,41,41); fill-rule: nonzero; opacity: 1;"  cx="0" cy="0" r="16" />
</g>
<g transform="matrix(0.31 0 0 0.31 165 408)"  >
<circle style="stroke: none; stroke-width: 1; stroke-dasharray: none; stroke-linecap: butt; stroke-dashoffset: 0; stroke-linejoin: miter; stroke-miterlimit: 4; fill: rgb(41,41,41); fill-rule: nonzero; opacity: 1;"  cx="0" cy="0" r="16" />
</g>
<g transform="matrix(0.31 0 0 0.31 219 408)"  >
<circle style="stroke: none; stroke-width: 1; stroke-dasharray: none; stroke-linecap: butt; stroke-dashoffset: 0; stroke-linejoin: miter; stroke-miterlimit: 4; fill: rgb(41,41,41); fill-rule: nonzero; opacity: 1;"  cx="0" cy="0" r="16" />
</g>
<g transform="matrix(0.31 0 0 0.31 273 408)"  >
<circle style="stroke: none; stroke-width: 1; stroke-dasharray: none; stroke-linecap: butt; stroke-dashoffset: 0; stroke-linejoin: miter; stroke-miterlimit: 4; fill: rgb(41,41,41); fill-rule: nonzero; opacity: 1;"  cx="0" cy="0" r="16" />
</g>
<g transform="matrix(0.31 0 0 0.31 327 408)"  >
<circle style="stroke: none; stroke-width: 1; stroke-dasharray: none; stroke-linecap: butt; stroke-dashoffset: 0; stroke-linejoin: miter; stroke-miterlimit: 4; fill: rgb(41,41,41); fill-rule: nonzero; opacity: 1;"  cx="0" cy="0" r="16" />
</g>
<g transform="matrix(0.31 0 0 0.31 381 408)"  >
<circle style="stroke: none; stroke-width: 1; stroke-dasharray: none; stroke-linecap: butt; stroke-dashoffset: 0; stroke-linejoin: miter; stroke-miterlimit: 4; fill: rgb(41,41,41); fill-rule: nonzero; opacity: 1;"  cx="0" cy="0" r="16" />
</g>
<g transform="matrix(0.31 0 0 0.31 435 408)"  >
<circle style="stroke: none; stroke-width: 1; stroke-dasharray: none; stroke-linecap: butt; stroke-dashoffset: 0; stroke-linejoin: miter; stroke-miterlimit: 4; fill: rgb(41,41,41); fill-rule: nonzero; opacity: 1;"  cx="0" cy="0" r="16" />
</g>
<g transform="matrix(0.31 0 0 0.31 138 462)"  >
<circle style="stroke: none; stroke-width: 1; stroke-dasharray: none; stroke-linecap: butt; stroke-dashoffset: 0; stroke-linejoin: miter; stroke-miterlimit: 4; fill: rgb(41,41,41); fill-rule: nonzero; opacity: 1;"  cx="0" cy="0" r="16" />
</g>
<g transform="matrix(0.31 0 0 0.31 192 462)"  >
<circle style="stroke: none; stroke-width: 1; stroke-dasharray: none; stroke-linecap: butt; stroke-dashoffset: 0; stroke-linejoin: miter; stroke-miterlimit: 4; fill: rgb(41,41,41); fill-rule: nonzero; opacity: 1;"  cx="0" cy="0" r="16" />
</g>
<g transform="matrix(0.31 0 0 0.31 246 462)"  >
<circle style="stroke: none; stroke-width: 1; stroke-dasharray: none; stroke-linecap: butt; stroke-dashoffset: 0; stroke-linejoin: miter; stroke-miterlimit: 4; fill: rgb(41,41,41); fill-rule: nonzero; opacity: 1;"  cx="0" cy="0" r="16" />
</g>
<g transform="matrix(0.31 0 0 0.31 300 462)"  >
<circle style="stroke: none; stroke-width: 1; stroke-dasharray: none; stroke-linecap: butt; stroke-dashoffset: 0; stroke-linejoin: miter; stroke-miterlimit: 4; fill: rgb(41,41,41); fill-rule: nonzero; opacity: 1;"  cx="0" cy="0" r="16" />
</g>
<g transform="matrix(0.31 0 0 0.31 354 462)"  >
<circle style="stroke: none; stroke-width: 1; stroke-dasharray: none; stroke-linecap: butt; stroke-dashoffset: 0; stroke-linejoin: miter; stroke-miterlimit: 4; fill: rgb(41,41,41); fill-rule: nonzero; opacity: 1;"  cx="0" cy="0" r="16" />
</g>
<g transform="matrix(0.31 0 0 0.31 408 462)"  >
<circle style="stroke: none; stroke-width: 1; stroke-dasharray: none; stroke-linecap: butt; stroke-dashoffset: 0; stroke-linejoin: miter; stroke-miterlimit: 4; fill: rgb(41,41,41); fill-rule: nonzero; opacity: 1;"  cx="0" cy="0" r="16" />
</g>
<g transform="matrix(0.31 0 0 0.31 462 462)"  >
<circle style="stroke: none; stroke-width: 1; stroke-dasharray: none; stroke-linecap: butt; stroke-dashoffset: 0; stroke-linejoin: miter; stroke-miterlimit: 4; fill: rgb(41,41,41); fill-rule: nonzero; opacity: 1;"  cx="0" cy="0" r="16" />
</g>
</svg>