<svg width="378" height="172" viewBox="0 0 378 172" fill="none" xmlns="http://www.w3.org/2000/svg">
<path fill-rule="evenodd" clip-rule="evenodd" d="M93.8131 49.6125C96.9777 48.778 100.142 47.9435 103.307 47.109C99.631 47.0704 96.5434 47.9859 93.8131 49.6125M262.302 48.3162C259.769 49.3905 257.783 50.2352 255.791 51.0734C255.469 51.2098 254.305 50.4976 254.866 51.4724C255.008 51.7208 255.979 52.0508 256.049 51.9973C257.769 50.6747 261.487 51.1565 262.302 48.3162M249.256 47.103C251.798 46.7135 255.512 48.3895 254.821 44.6396C252.782 45.1427 250.416 45.0712 249.256 47.103M247.037 46.8601C243.654 47.0828 241.153 47.8275 238.384 47.5622C237.548 47.4819 236.309 47.4523 236.392 48.2637C236.459 48.9143 237.582 49.0808 238.495 49.2332C241.91 49.8047 244.498 49.0285 247.037 46.8601M103.187 35.6553C103.107 35.4134 103.031 35.1718 102.953 34.929C97.5635 34.2175 92.7088 35.1815 88.1436 37.0561C93.1581 36.5882 98.1709 36.1221 103.187 35.6553M271.816 44.4877C273.301 43.274 274.018 42.5388 271.699 41.1852C270.472 40.4696 267.953 40.0355 268.238 38.212C268.286 37.9023 267.361 38.0149 266.958 38.1766C266.651 38.2998 265.794 38.1571 266.297 38.7897C267.942 40.8605 266.348 41.9375 263.973 42.8749C265.837 42.784 267.266 44.6116 269.253 43.226C269.786 42.8532 269.03 41.4339 270.679 42.0412C271.878 42.4811 272.069 43.377 271.816 44.4877M257.837 46.3383C257.826 44.0396 261.308 43.1351 259.259 40.7327C258.421 39.7499 260.791 39.6623 261.652 39.1649C266.698 36.2565 272.324 33.8971 278.185 31.891C280.662 31.0437 283.832 31.9943 286.425 33.1769C287.033 33.4547 287.707 33.971 287.286 34.5776C286.737 35.3687 286.009 34.5426 285.363 34.5027C284.472 34.4487 283.571 34.3177 282.731 34.9055C284.608 36.3531 286.124 37.9755 289.17 38.4553C291.322 38.7949 290.5 40.4458 290.482 41.1781C290.436 42.9243 292.021 43.6566 293.324 44.7846C294.575 45.8673 295.04 47.1742 297.676 46.8088C298.664 46.6707 300.375 47.3442 300.864 48.5031C299.482 49.2162 298.516 48.1941 297.393 47.8271C296.439 50.115 298.994 50.2031 300.713 50.7926C301.601 51.0968 302.887 51.1208 302.916 52.1274C302.948 53.243 301.107 52.3774 300.575 53.2134C303.282 54.0701 304.118 55.3182 300.968 55.9558C298.818 56.391 300.403 58.262 298.185 58.4364C298.375 57.4771 297.578 56.5939 297.017 55.6309C295.086 56.0072 296.916 57.1868 296.331 57.8638C294.376 57.7262 294.095 55.7047 291.702 56.2308C292.421 55.1555 296.421 54.4852 291.679 53.8617C290.132 53.6588 289.506 51.4806 287.094 52.5093C286.473 52.7729 286.418 51.8142 286.438 51.5381C286.596 49.3323 284.288 47.9332 282.078 47.6935C279.403 47.4046 275.72 45.842 273.918 48.7746C273.476 49.4936 272.149 49.9367 271.131 50.4044C269.607 51.1026 267.731 51.2879 268.229 53.3741C268.471 54.3918 266.622 55.9027 263.925 55.0333C261.269 54.1776 259.492 54.7009 259.421 56.7276C259.376 57.9907 258.661 57.246 257.864 57.3988C254.772 57.9873 251.227 55.4582 248.408 57.7699C247.022 58.9076 246.029 59.4103 249.253 59.9023C245.265 60.2557 241.257 60.5478 237.295 60.9831C234.769 61.2598 233.283 60.2768 232.107 58.8915C231.534 58.2165 231.58 57.5264 229.821 57.5698C228.096 57.6113 226.825 56.2256 226.514 55.1059C225.958 53.1046 224.145 51.6266 222.776 49.9419C221.15 47.9373 218.884 47.7786 217.107 48.9837C212.713 51.9674 206.793 53.5403 202.669 56.711C200.952 58.0309 197.051 57.2339 196.685 59.7624C195.713 59.6019 194.72 59.2932 193.778 59.3121C191.637 59.355 189.512 59.5287 187.399 59.7086C185.473 59.871 183.974 59.6958 184.016 57.551C183.232 60.0157 181.487 59.8253 179.075 58.9289C178.201 58.6024 176.73 58.6751 176.905 57.8266C176.99 57.4106 178.222 56.4521 179.602 57.1022C180.679 57.6095 181.698 57.9033 181.776 56.7818C181.862 55.5335 180.116 55.9826 179.452 55.9755C174.036 55.9098 170.306 54.151 167.963 50.5271C166.982 49.0113 164.746 48.514 162.796 48.8381C156.356 49.9061 149.531 51.1838 145.15 54.3548C142.276 56.4335 138.637 57.3792 135.781 59.2394C133.285 60.862 129.742 61.4529 127.355 63.4207C125.273 65.1344 116.988 63.8962 115.054 61.6124C111.577 57.5094 105.984 54.2229 104.561 49.3201C104.169 47.9701 102.917 48.0877 101.623 48.4429C99.3204 49.0774 97.0294 49.7323 94.7146 50.3494C93.5175 50.6692 92.5257 51.3408 90.8825 50.5497C89.2244 49.7528 88.4877 51.0265 87.5916 51.6226C87.1133 51.9421 87.4246 53.0879 86.7847 52.9499C83.0639 52.1424 82.9641 55.0019 80.6975 55.6307C79.2008 56.0457 79.2753 56.0515 76.7994 55.6455C76.0776 55.5278 75.1438 55.9387 74.4487 56.2533C69.1603 58.6558 63.4795 60.2601 56.9624 60.798C54.1365 61.03 52.6376 60.3388 51.727 58.8343C49.8853 55.793 46.3687 53.6375 43.7362 51.0231C42.8191 50.1107 42.06 49.781 40.8263 50.7192C36.8206 53.7662 32.1176 56.1674 26.6539 57.8693C25.5122 58.2247 25.7431 59.843 24.2244 59.917C20.801 60.0849 17.3327 60.0809 13.8718 60.0379C12.9768 60.0273 12.5759 59.4796 13.1073 58.8571C13.6733 58.1948 13.4522 57.7125 12.348 57.3457C8.27669 55.9975 7.62433 53.4908 10.8388 51.3278C15.5093 48.1852 20.262 45.1033 24.9374 41.9663C29.6034 38.8371 34.2593 35.6978 38.8338 32.5019C40.4214 31.3941 42.0708 30.3406 44.1239 29.7383C46.4388 29.0613 49.571 29.0603 50.5958 30.8359C52.4425 34.0385 56.3269 36.625 56.9352 40.1355C57.3139 42.3273 58.6192 41.8027 60.3776 41.1225C71.2881 36.8931 82.4174 32.9852 95.0836 31.4566C95.3315 31.4272 95.5709 31.3728 95.8183 31.3463C110.804 29.796 112.29 32.3669 116.975 41.429C119.262 45.8507 117.684 46.222 124.319 43.4865C131.108 40.6865 137.334 37.2557 144.575 34.9616C150.434 33.1059 156.277 31.1827 163.385 32.8158C168.611 34.0169 172.019 36.8401 175.062 39.7698C180.1 44.6191 185.731 44.3383 191.887 41.8803C198.572 39.2126 204.863 36.094 211.421 33.2746C219.049 29.9934 223.22 31.064 228.204 37.4858C229.283 38.8766 230.05 40.391 231.272 41.7149C234.15 44.8325 238.039 45.641 242.637 44.4928C246.977 43.4099 251.523 42.6767 255.609 41.1652C256.229 40.9355 256.969 40.0863 257.796 41.0668C258.351 41.7266 257.711 42.2764 257.202 42.7628C255.813 44.0907 255.802 44.0844 257.837 46.3383" fill="#67B246"/>
<path fill-rule="evenodd" clip-rule="evenodd" d="M232.244 85.8178C232.274 86.0818 232.305 86.345 232.336 86.6092C235.856 87.0515 239.208 86.7961 242.312 85.5163C238.956 85.6174 235.6 85.7176 232.244 85.8178M120.211 92.348C116.666 92.2759 113.094 92.3803 109.841 93.4917C113.493 93.869 116.92 93.4789 120.211 92.348M166.905 95.0294C170.93 96.0089 176.669 95.4454 180.196 94.0003C175.64 94.353 171.272 94.6911 166.905 95.0294M189.87 83.1148C192.245 82.1136 195.575 82.216 197.422 80.5024C194.797 81.2213 190.793 80.0747 189.87 83.1148M39.593 91.8553C43.6982 92.7274 46.4805 92.7068 48.9654 90.3364C45.6251 90.8446 42.7901 90.6035 39.593 91.8553M213.097 79.8134C210.886 77.9218 203.808 78.4758 200.914 80.7906C204.681 79.6185 208.921 80.1913 213.097 79.8134M186.436 82.2836C178.117 83.9166 169.664 84.909 160.614 85.1478C164.812 87.5929 182.206 85.5972 186.436 82.2836M130.561 80.8792C121.783 79.9217 114.177 83.2283 105.56 82.8919C104.644 82.8568 103.602 83.256 103.794 83.9455C104.035 84.8115 105.302 84.8752 106.316 84.807C110.594 84.5221 114.807 83.8431 119.04 83.6387C123.483 83.4252 126.796 81.9497 130.482 80.8068C135.417 81.5143 139.851 80.4393 144.583 79.827C141.687 77.4749 135.28 78.0457 130.561 80.8792M240.227 99.0982C232.474 99.7237 226.062 97.8258 221.146 93.0638C219.926 91.8808 218.321 90.7688 216.3 90.9817C211.045 91.5339 205.592 90.5754 200.341 91.633C192.275 93.2581 184.626 95.7225 176.157 96.5442C172.95 96.8557 169.73 97.1187 166.456 97.4082C166.014 98.5165 168.09 97.9288 168.305 98.6759C167.909 98.7346 167.5 98.9026 167.197 98.8217C162.037 97.449 156.003 97.085 152.803 93.2166C151.6 91.7602 149.502 91.1835 148.281 89.8068C147.85 89.3224 145.093 89.5198 143.579 89.7929C135.064 91.3298 126.644 93.0716 118.103 94.5535C115.134 95.068 111.927 95.0851 108.81 95.2355C107.483 95.2984 106.39 95.2204 105.349 94.0178C104.552 93.0997 102.998 91.1654 100.513 92.5956C99.0516 91.0617 95.6123 91.9962 94.495 89.553C93.2303 86.7849 90.2395 86.8625 86.5169 87.3363C81.3738 87.9905 78.6242 91.2017 73.7132 91.8386C72.7018 91.9699 72.0665 92.5351 71.5842 93.1864C71.2444 93.6431 70.7333 94.4057 70.2901 94.382C66.0879 94.159 66.0878 97.2788 63.6243 98.3822C59.6997 100.137 55.8462 102.012 50.9016 102.346C49.3623 102.45 49.4099 102.491 48.453 103.778C48.2887 104.001 47.617 104.071 47.1516 104.102C43.9579 104.321 42.6818 103.633 39.6178 100.753C39.0314 100.201 37.3067 100.239 36.1141 99.9829C31.9856 99.092 31.3362 95.8551 28.3391 94.1934C27.786 93.8872 27.0853 92.8867 26.7097 93.4409C25.1378 95.7671 20.417 95.1262 19.0425 97.5836C18.6047 98.363 17.6059 98.9748 16.7651 99.5954C15.8432 100.276 14.7172 101.11 13.3228 100.782C12.1371 100.505 12.1581 99.3593 12.2676 98.5818C12.4861 97.018 9.13199 96.9257 9.58234 94.9532C10.0981 92.6931 11.474 90.8336 13.2998 89.335C17.789 85.6499 20.0858 81.1094 22.8866 76.7625C23.6911 75.5148 24.3857 74.6542 26.6233 74.8423C28.7217 75.0188 29.6523 75.6983 30.8943 77.0925C33.3398 79.8343 34.4442 82.7321 35.5905 85.6728C36.2295 87.3117 37.7482 88.075 39.8472 88.055C44.8653 88.0107 49.6728 87.5751 53.1608 84.796C59.5692 79.6872 68.4341 77.2278 77.0394 74.442C79.0692 73.7851 80.9638 72.7238 82.915 71.8439C85.162 70.8295 87.7166 70.5263 90.404 70.8018C93.2501 71.0932 94.7397 72.4 95.7945 74.3767C98.6793 79.7806 101.731 80.8658 109.415 79.7452C117.65 78.5443 125.828 77.1309 134.197 76.3621C138.061 76.008 141.726 74.9206 145.922 75.3673C149.473 75.7455 152.616 76.4444 154.325 78.8433C156.177 81.4397 159.032 81.9007 162.406 81.7667C171.527 81.4037 180.397 80.3222 188.976 78.4735C195.516 77.0641 202.161 75.8598 209.026 75.3075C214.186 74.8908 219.359 75.5794 223.111 78.8977C226.244 81.6704 230.071 82.3139 234.525 82.1336C245.717 81.6803 256.32 79.699 266.929 77.7552C279.312 75.4884 291.299 72.407 303.93 70.6416C306.926 70.2232 309.922 69.6102 313.134 70.9901C311.788 72.6255 309.55 72.4394 307.651 72.58C303.517 72.886 299.551 73.5324 295.737 74.5342C295.252 74.6612 294.304 74.8261 294.73 75.3956C295.202 76.0256 295.723 75.5855 296.447 75.456C301.361 74.5679 305.976 72.7511 311.511 73.6136C312.884 73.8276 314.959 73.4954 313.856 75.4083C313.459 76.0957 314.776 76.1314 315.282 76.476C315.773 76.8119 316.537 77.3987 316.109 77.5643C314.435 78.2098 314.276 80.0551 312.713 80.3085C306.532 81.3125 300.524 82.803 295.055 84.704C288.933 86.8327 281.51 87.3447 276.626 91.0517C271.996 90.2989 270.242 94.372 265.246 93.6634C262.003 93.2032 259.36 95.447 256.692 96.5361C251.502 98.6557 245.888 98.8368 240.153 99.1004C243.106 97.599 247.163 98.205 250.249 96.9239C245.551 97.6022 240.692 97.5566 235.849 97.9451C237.137 99.1032 239.269 97.5382 240.227 99.0982" fill="#67B246"/>
<path fill-rule="evenodd" clip-rule="evenodd" d="M131.678 141.919C129.204 139.677 129.204 139.677 125.702 141.689C127.843 141.772 129.616 141.84 131.678 141.919M107.374 120.948C106.157 121.531 105.019 121.911 105.527 123.008C106.04 124.118 107.275 124.721 109.942 125.182C107.43 123.81 108.02 122.42 107.374 120.948M290.041 130.165C286.701 129.792 283.761 130.543 280.734 131.003C283.766 130.507 287.499 133.272 290.041 130.165M265.909 137.65C265.919 137.794 265.931 137.937 265.942 138.081C269.728 138.195 273.515 138.318 277.297 138.403C277.533 138.408 277.951 138.102 277.93 137.945C277.859 137.43 277.248 137.076 276.615 137.101C273.04 137.248 269.477 137.46 265.909 137.65M280.523 143.236C275.166 143.42 269.74 143.046 264.361 143.057C269.907 144.449 275.213 143.815 280.523 143.236M133.293 130.57C130.927 130.503 128.553 130.38 126.204 130.413C125.566 130.422 124.376 129.515 124.186 130.73C124.047 131.626 124.804 131.934 125.834 132.311C129.126 133.512 131.01 131.79 133.293 130.57M234.874 121.28C237.496 123.45 240.985 122.663 244.144 123.058C244.882 123.15 245.301 122.822 245.405 122.342C245.486 121.961 245.16 121.488 244.659 121.569C241.405 122.104 238.004 119.623 234.874 121.28M274.537 131.629C273.472 131.282 261.961 130.083 260.866 130.197C260.366 130.249 259.764 130.283 259.862 130.748C259.928 131.072 260.188 131.486 260.543 131.682C263.079 133.071 271.75 133.014 274.537 131.629M191.455 142.279C192.923 142.962 194.941 142.288 196.041 143.802C194.012 144.502 191.917 144.411 189.833 143.953C188.7 143.704 187.656 143.458 186.485 143.593C183.705 143.915 181.663 143.68 181.972 140.974C182.113 139.738 175.971 136.646 173.855 136.674C171.222 136.708 168.007 136.236 166.06 136.751C160.837 138.132 154.628 138.24 150.569 141.316C149.785 141.912 148.776 141.693 147.84 141.833C144.389 142.35 140.233 141.48 137.828 144.155C136.885 145.201 136.792 142.832 134.977 143.214C132.936 143.643 130.475 143.355 128.197 143.225C122.619 142.903 119.641 141.518 119.107 137.729C118.76 135.262 117.287 135.976 115.463 136.082C116.289 134.994 118.034 134.043 114.782 133.488C112.657 133.124 112.777 131.399 111.842 130.346C111.187 129.607 112.676 130.112 113.236 130.032C114.21 129.897 115.345 129.751 115.653 128.882C114.488 128.64 115.075 126.993 112.999 127.322C111.693 127.528 110.386 126.835 109.155 125.973C110.031 128.209 107.381 129.27 106.896 131.053C106.534 132.381 105.579 133.648 105.956 135.104C106.214 136.098 105.133 136.421 104.777 135.842C103.724 134.127 100.634 133.445 100.397 131.369C100.303 130.554 100.941 130.51 101.607 130.354C102.291 130.194 104.16 130.842 103.555 129.994C102.375 128.347 103.158 126.935 103.06 125.428C100.305 126.809 101.306 124.021 99.8239 123.761C99.4746 123.699 99.3064 121.888 100.938 122.092C105.163 122.618 105.049 120.229 105.01 118.684C104.947 116.272 106.771 115.361 109.283 114.571C110.619 115.251 108.417 116.837 110.89 117.24C112.895 117.567 112.839 116.144 113.815 115.602C114.345 115.306 115.094 114.927 114.571 114.276C114.053 113.636 113.14 113.893 112.479 113.943C108.954 114.209 109.526 111.925 110.268 111.481C112.645 110.056 113.866 107.835 116.76 106.826C119.83 105.757 121.758 106.57 122.096 109.04C122.131 109.295 122.304 109.592 122.542 109.796C127.685 114.222 125.963 118.914 125.043 123.499C124.257 127.418 124.437 127.606 130.131 127.319C136.765 126.984 142.811 125.391 148.998 124.115C156.122 122.644 163.145 120.944 170.678 120.441C176.656 120.043 181.891 121.336 185.374 125.366C187.196 127.473 189.389 127.943 192.541 127.467C203.038 125.878 212.776 122.993 222.616 120.297C227.46 118.97 232.569 118.112 237.621 117.416C243.537 116.601 249.382 118.322 253.242 122.122C256.838 125.664 261.253 126.919 266.872 127.016C282.613 127.283 297.811 125.509 312.984 123.666C328.638 121.765 344.085 119.338 359.441 116.697C360.28 116.552 361.183 116.452 362.059 116.504C363.467 116.586 365.268 116.765 365.593 117.855C365.852 118.724 364.002 118.705 363.116 119.109C362.27 119.492 360.3 119.252 360.786 120.343C361.3 121.5 362.957 120.813 364.135 120.915C365.739 121.055 369.6 120.037 366.503 122.933C366.355 123.072 366.423 123.444 366.584 123.633C369.629 127.205 367.546 129.757 361.824 130.633C357.855 131.241 353.878 132.172 350.175 133.257C342.929 135.376 335.253 136.639 327.781 138.268C314.727 141.116 301.393 143.452 287.717 144.946C279.734 145.817 271.656 145.85 263.478 144.696C262.169 144.511 260.948 144.353 259.775 144.924C260.684 145.761 261.866 146.237 263.178 146.579C261.05 146.03 258.709 145.812 257.322 144.16C256.739 143.468 255.778 143.411 254.777 143.174C253.424 142.854 250.975 142.437 252.505 140.667C252.619 140.535 252.629 140.352 252.687 140.192C249.463 140.388 250.88 137.787 249.072 137.223C246.774 136.506 245.028 135.403 243.519 133.989C242.39 132.934 240.634 132.76 239.039 132.743C237.637 132.728 235.729 134.012 235.736 131.615C235.735 131.575 234.8 131.381 234.361 131.431C233.556 131.523 233.486 132.075 233.75 132.487C234.505 133.666 234.094 134.644 232.513 134.763C230.005 134.953 228.294 136.644 225.592 136.19C224.186 135.954 225.082 134.714 223.993 134.003C222.948 135.29 219.505 135.119 220.451 137.51C220.485 137.597 220.091 137.866 219.95 137.84C217.505 137.388 217.115 138.245 216.347 139.724C215.529 141.298 212.282 140.997 210.019 141.387C209.665 141.447 209.051 141.516 209.03 141.649C208.437 145.237 204.453 142.372 202.324 143.046C201.675 143.251 201.188 142.706 200.763 142.117C199.046 139.745 197.301 139.519 194.882 141.025C193.97 141.593 192.666 141.85 191.455 142.279" fill="#67B246"/>
<path fill-rule="evenodd" clip-rule="evenodd" d="M282.08 146.934C278.868 147.874 275.507 147.965 271.359 147.41C275.145 146.089 278.823 147.51 282.08 146.934" fill="#67B246"/>
</svg>

