<svg width="320" height="289" viewBox="0 0 320 289" fill="none" xmlns="http://www.w3.org/2000/svg">
<path fill-rule="evenodd" clip-rule="evenodd" d="M117.487 145.73C118.045 146.062 118.292 146.21 118.668 146.432C117.36 147.487 116.08 148.52 114.784 149.567C115.137 149.764 115.401 149.911 115.736 150.096C114.428 151.126 113.169 152.117 111.848 153.156C112.158 153.34 112.407 153.486 112.684 153.65C111.983 154.356 111.33 155.143 110.553 155.752C110.012 156.176 109.288 156.328 108.67 156.646C108.013 156.986 108.924 157.88 108.208 158.555C107.524 159.197 106.743 159.717 105.774 160.299C106.255 160.597 106.488 160.744 106.885 160.991C105.573 162.05 104.298 163.079 103.007 164.121C103.344 164.302 103.617 164.446 103.886 164.59C102.333 165.952 100.784 167.313 99.1327 168.763C99.5873 169.027 99.8405 169.174 100.098 169.323C98.5648 170.71 97.0207 172.106 95.4074 173.567C95.9205 173.88 96.16 174.027 96.3489 174.142C94.7738 175.552 93.2373 176.927 91.6369 178.359C92.1125 178.61 92.3846 178.755 92.6471 178.894C91.0938 180.262 89.5474 181.627 87.9027 183.077C88.3582 183.337 88.6153 183.483 88.9153 183.655C87.377 184.994 85.8381 186.333 84.238 187.728C84.6293 188.091 84.8838 188.326 85.309 188.722C83.8004 189.455 82.1163 189.838 81.4501 191.641C81.684 191.765 81.9567 191.911 82.2814 192.084C80.9649 193.011 79.6643 193.93 78.2644 194.917C78.7432 195.365 78.9962 195.602 79.4612 196.038C77.0944 196.723 75.4366 198.246 74.1903 200.298C74.4591 200.445 74.7257 200.591 75.1066 200.798C74.8187 201.02 74.6192 201.326 74.3772 201.338C73.0046 201.402 72.2301 202.047 71.7193 203.604C71.6635 203.773 71.428 203.904 71.2479 203.939C70.9794 203.988 70.522 203.803 70.4295 203.952C70.0106 204.639 69.6737 205.508 68.7284 205.246C67.7476 204.975 66.9483 204.059 65.927 203.757C65.6968 203.689 65.5512 202.992 65.4205 202.703C64.419 202.708 63.5721 202.712 62.2996 202.719C63.6182 201.193 64.6224 200.033 65.7381 198.745C64.5575 198.598 64.1943 199.204 63.7469 199.95C63.4381 200.463 62.5949 200.541 62.0301 200.797C60.9296 199.119 62.0945 198.447 62.6261 197.868C66.2039 193.976 69.2034 189.526 72.3455 185.221C75.7221 180.595 78.7054 175.588 82.2211 171.107C84.5675 168.115 86.6763 164.9 89.0855 161.994C91.8031 158.717 94.1865 155.108 97.0172 151.961C98.8453 149.928 100.322 147.563 102.184 145.542C103.952 143.625 105.654 141.55 107.249 139.449C108.976 137.172 110.773 134.975 112.624 132.842C116.081 128.854 119.471 124.794 122.975 120.851C125.279 118.26 127.487 115.524 129.737 112.856C133.024 108.959 136.505 105.278 139.742 101.319C142.553 97.8814 145.823 94.9196 148.739 91.581C151.161 88.8096 153.704 86.1824 156.184 83.4806C160.636 78.627 165.084 73.7692 169.595 68.982C172.492 65.9083 175.512 62.9567 178.299 59.7611C182.466 54.9859 187.069 50.7315 191.348 46.1069C193.905 43.3408 196.464 40.5922 199.131 37.9537C202.395 34.7283 205.37 31.1448 208.702 28.0096C213.683 23.3211 218.356 18.2771 223.156 13.379C226.767 9.69467 230.564 6.22822 233.713 2.01322C234.147 1.43365 234.939 1.20057 235.51 0.842599C237.071 2.52377 234.607 3.01673 235.449 4.609C235.827 4.19841 236.103 3.79037 236.472 3.52755C236.861 3.25012 237.338 3.11296 238.064 2.78479C238.154 3.61198 238.217 4.17835 238.28 4.74868C238.813 4.87689 239.502 4.48195 239.902 5.61473C240.102 6.18067 239.324 7.22058 240.599 7.36105C240.589 7.45741 240.604 7.57318 240.563 7.64518C240.269 8.15039 240.004 8.68717 239.654 9.13743C237.849 11.459 236.205 13.9797 234.157 16.007C231.353 18.7831 228.893 21.9226 226.16 24.7613C222.055 29.0239 217.934 33.267 213.869 37.5739C211.291 40.3043 208.798 43.1329 206.253 45.9331C206.583 46.1083 206.856 46.2552 207.129 46.4022C207.097 46.5113 207.097 46.6678 207.03 46.7092C206.912 46.7836 203.624 49.0139 203.428 49.1998C202.288 50.2778 201.145 51.3544 199.943 52.4871C200.434 52.7668 200.691 52.9138 201.34 53.2826C200.679 53.4282 200.357 53.5301 200.023 53.5627C199.656 53.5991 199.121 53.3943 198.931 53.6015C197.673 54.9643 196.487 56.4095 195.272 57.8388C195.607 58.0313 195.861 58.1768 196.518 58.5548C195.843 58.6939 195.519 58.7883 195.184 58.8214C194.818 58.8585 194.288 58.6603 194.097 58.8679C192.84 60.2299 191.655 61.6718 190.439 63.0971C190.777 63.2938 191.031 63.441 191.695 63.8259C191.005 63.959 190.681 64.0478 190.345 64.0797C189.98 64.1151 189.453 63.9279 189.261 64.136C188.007 65.4942 186.824 66.9341 185.608 68.3578C185.95 68.5583 186.2 68.7045 186.873 69.0976C186.168 69.2263 185.812 69.4209 185.513 69.3152C184.96 69.1202 184.694 69.1812 184.283 69.6563C182 72.2942 179.624 74.8316 177.236 77.4512C177.584 77.6445 177.848 77.79 178.127 77.9443C177.969 79.4559 175.936 77.3499 175.749 79.2862C175.675 80.0614 174.447 80.5492 173.648 81.2528C174.082 81.5103 174.33 81.6563 174.568 81.7979C174.526 81.9566 174.502 82.1479 174.421 82.2958C174.389 82.3554 171.961 83.3774 171.89 83.4545C170.176 85.3278 168.462 87.1995 166.716 89.1084C167.123 89.3262 167.396 89.4732 167.676 89.6226C165.59 90.5944 164.756 91.2536 163.357 93.0405C163.636 93.1892 163.908 93.3355 164.178 93.4782C164.091 93.64 164.034 93.9364 163.904 93.9644C160.783 94.6267 159.458 97.7543 157.241 99.6518C156.074 100.652 155.225 102.087 154.23 103.328C154.547 103.51 154.803 103.657 155.072 103.811C154.923 104.003 154.831 104.265 154.686 104.286C152.299 104.635 150.893 106.626 149.602 108.345C147.937 110.562 145.654 112.112 144.4 114.752C144.585 114.857 144.845 115.004 145.358 115.294L141.575 117.006C141.713 117.542 141.794 117.857 141.897 118.255C141.666 119.517 139.208 118.537 139.791 121.037C139.276 121.27 138.648 121.498 138.079 121.834C137.794 122.004 137.368 122.466 137.435 122.633C137.729 123.361 137.478 123.562 136.985 123.883C136.302 124.326 134.757 123.999 135.402 125.854C135.436 125.954 135.005 126.216 134.775 126.376C134.073 126.862 132.652 126.658 133.274 128.403C132.522 128.841 131.768 129.278 131.038 129.701C131.005 130.2 131.149 130.936 130.906 131.142C130.316 131.644 129.547 131.905 128.849 132.261C129.475 134.089 127.861 133.884 127.236 134.435C127.231 134.666 127.192 134.798 127.233 134.841C127.303 134.918 127.427 134.931 127.52 134.992C127.673 135.093 127.818 135.211 128.202 135.495L124.717 137.071C125.274 137.406 125.517 137.551 125.772 137.705C125.853 139.02 123.872 138.043 124.066 139.628C124.259 141.208 122.718 140.72 122.089 141.344C121.422 142.008 120.76 142.679 119.999 143.445C119.999 143.324 119.965 143.455 120.006 143.497C120.078 143.573 120.201 143.586 120.292 143.647C120.443 143.747 120.587 143.867 120.968 144.155L117.487 145.73Z" fill="#67B246"/>
<path fill-rule="evenodd" clip-rule="evenodd" d="M272.692 181.927C283.303 179.3 281.092 178.674 281.233 179.681C282.068 179.665 282.912 179.649 284.163 179.625C283.649 180.661 283.324 181.315 282.996 181.976C283.183 182.08 283.446 182.226 283.711 182.372C283.637 182.53 283.599 182.813 283.472 182.858C280.318 183.968 277.935 186.511 274.764 187.65C271.585 188.792 268.394 190.069 265.551 191.877C263.235 193.347 260.832 194.565 258.407 195.789C257.659 196.166 256.695 195.694 256.041 196.716C255.551 197.481 254.31 197.607 253.402 198.018L250.411 199.371C249.503 199.782 248.596 200.188 247.691 200.603C246.789 201.014 245.889 201.431 244.997 201.864C244.931 201.895 244.931 202.063 244.824 202.436C245.733 202.179 246.5 201.962 247.268 201.743C247.325 201.88 247.382 202.017 247.44 202.153C246.507 202.609 245.578 203.075 244.638 203.514C243.647 203.98 242.647 204.425 241.645 204.867C241.475 204.942 241.227 205.067 241.101 204.985C239.382 203.858 238.339 204.566 237.368 205.98C237.003 206.51 236.142 206.594 235.507 206.881C226.984 210.737 218.453 214.576 209.948 218.472C209.022 218.896 207.708 218.845 207.449 220.335C207.436 220.401 207.252 220.486 207.19 220.452C205.948 219.743 205.788 221.712 204.927 221.429C203.815 221.065 203.343 221.43 202.869 222.354C202.726 222.638 201.988 222.581 201.521 222.528C200.866 222.452 200.706 222.01 201.013 221.42C200.86 221.331 200.692 221.162 200.559 221.174C200.377 221.193 200.093 221.322 200.083 221.456C200.051 221.862 200.242 222.345 200.139 222.7C200.003 223.173 199.766 223.756 199.403 223.927C198.779 224.22 197.727 223.958 197.391 224.425C196.85 225.179 196.367 225.334 195.486 225.315C194.886 225.303 194.411 226.202 193.788 226.498C191.278 227.692 188.733 228.809 186.26 229.927C185.796 229.565 185.404 229.259 185.013 228.955C184.826 229.447 184.641 229.939 184.294 230.859C183.377 231.651 181.006 231.299 180.875 233.954C180.36 233.681 179.882 233.428 179.457 233.203C177.625 234.882 175.589 235.925 173.134 236.031C171.51 238.167 168.825 238.161 166.833 239.543C166.614 238.934 166.427 238.217 166.347 238.222C165.35 238.271 165.896 239.115 165.933 239.83L163.051 241.134C163.115 241.664 163.166 242.085 163.221 242.531C163.061 242.514 162.87 242.559 162.75 242.469C161.815 241.779 160.76 241.799 160.25 242.528C159.055 244.236 157.142 244.483 155.538 245.34C154.156 246.078 152.69 246.65 151.444 247.771C152.362 247.48 153.282 247.189 154.2 246.896C152.299 248.003 150.776 250.28 148.326 248.838C147.36 249.487 146.636 250.114 145.804 250.511C143.218 251.744 140.591 252.892 138.036 254.048C138.121 254.663 138.177 255.083 138.265 255.71C137.473 255.132 136.829 254.661 136.184 254.191C136.396 255.149 136.377 256.251 135.315 255.976C134.192 255.685 133.927 256.353 133.253 256.871C132.022 257.815 130.446 258.251 129.159 259.331C129.89 259.149 130.622 258.967 131.392 258.778C131.373 259.036 131.416 259.327 131.34 259.362C129.356 260.287 127.402 261.296 125.348 262.052C123.833 262.609 122.069 262.48 120.677 263.442C120.451 263.599 120.247 263.792 120.163 264.264C120.931 264.025 121.699 263.785 122.467 263.544C120.317 264.848 118.418 266.584 115.674 266.624C114.459 266.642 113.356 267.584 112.285 268.477C112.85 268.395 113.416 268.312 114 268.227C113.987 268.434 114.034 268.726 113.959 268.762C113.065 269.193 112.153 269.584 111.245 269.986C110.151 268.861 110.328 271.187 109.19 270.637C108.449 270.28 108.059 272.084 106.613 271.476C105.826 271.147 104.698 272.221 103.872 273.092C104.629 272.903 105.387 272.717 106.192 272.516C106.125 272.791 106.136 273.07 106.036 273.118C104.688 273.756 103.29 274.295 101.971 274.993C99.397 276.354 96.7049 277.556 94.3809 279.303C93.1276 280.245 91.7897 280.928 90.4995 281.748C89.3917 282.451 88.4594 283.462 88.8278 285.506C88.3558 285.72 87.406 286.413 87.1973 286.199C86.2862 285.261 85.0049 285.7 84.2934 284.86C83.6217 284.066 83.0676 283.979 82.2324 283.846C80.5473 283.578 79.528 282.069 79.4633 280.178C78.9049 279.895 78.34 279.611 77.7878 279.33C77.6995 279.093 77.5182 278.841 77.5564 278.676C77.9615 276.863 78.8396 275.632 80.3572 274.66C82.8434 273.069 85.0124 270.937 87.8073 269.853C88.864 268.027 90.9017 267.922 92.456 266.968C93.6722 266.223 94.7971 265.311 96.0397 264.619C97.2538 263.942 98.8799 263.79 99.7616 262.792C101.031 261.358 102.633 260.742 104.24 260.181C106.306 259.461 107.711 257.693 109.683 256.868C111.701 256.02 113.952 255.46 115.615 254.09C118.824 251.446 122.95 250.766 126.275 248.529C130.397 245.755 135.235 244.45 139.337 241.797C144.861 238.221 151.074 236.229 156.841 233.247C157.548 232.883 158.293 232.596 159.013 232.256C159.62 231.971 160.38 231.866 160.428 230.885C161.207 231.746 161.407 230.321 162.193 230.55C162.674 230.691 163.257 229.685 163.866 229.319C164.546 228.911 165.306 228.645 166.031 228.316L167.935 227.455L170.112 226.471L172.288 225.486L174.192 224.625C174.917 224.297 175.62 223.904 176.374 223.656C177.266 223.364 177.955 222.648 179.156 222.956C179.734 223.104 180.373 221.89 181.098 221.532C183.331 220.436 185.641 219.501 187.875 218.406C188.707 218 189.875 218.059 190.114 216.67C190.269 215.758 191.488 217.516 191.729 216.149C191.805 215.717 192.91 215.151 193.138 215.334C194.43 216.363 194.285 213.979 195.18 214.568C196.449 215.401 196.288 213.819 196.905 213.594C197.253 213.466 197.642 213.438 198.011 213.362C198.66 213.232 199.804 213.28 199.869 212.939C200.137 211.547 201.474 212.187 202.108 211.413C202.762 210.61 203.987 210.381 204.977 209.933C222.746 201.891 240.534 193.883 258.275 185.775C260.641 184.694 263.403 184.284 265.122 181.954C266.884 182.625 267.467 180.731 268.722 180.239C272.609 178.716 276.363 176.869 280.43 175.029C280.518 175.588 280.759 176.34 280.628 176.417C278.801 177.492 277.221 178.951 275.205 179.76C271.143 181.391 267.203 183.315 263.22 185.135C263.077 185.201 263.023 185.464 262.926 185.636C263.156 185.66 263.395 185.732 263.612 185.702C264.155 185.624 264.915 186.131 265.115 185.07C265.166 184.794 265.794 184.725 266.156 184.561C271.408 182.185 276.658 179.81 272.692 181.927C263.287 186.37 263.246 186.252 263.205 186.135C262.243 186.251 261.254 186.278 260.328 186.515C259.837 186.642 257.011 188.061 256.567 188.18C256.188 188.281 255.574 188.372 255.517 188.642C255.231 189.978 254.103 189.989 253.257 190.375C240.387 196.226 227.507 202.056 214.61 207.846C213.853 208.187 213.204 209.047 212.118 208.476C211.911 208.367 211.4 208.499 211.359 208.66C211.007 210.081 209.688 209.947 208.805 210.486C206.995 211.59 204.753 211.856 203.291 213.695C202.878 214.214 201.878 214.188 201.126 214.315C199.676 214.561 198.281 214.898 197.334 216.166C197.003 216.609 196.045 215.943 196.072 216.97C194.911 216.258 193.818 216.953 193.382 217.599C192.654 218.677 191.391 217.828 190.748 218.669C190.632 218.818 190.392 218.896 190.356 219.065C190.18 219.867 189.797 219.876 189.044 219.768C188.314 219.664 187.38 219.964 186.897 220.493C186.271 221.179 185.446 221.862 184.784 221.99C183.755 222.189 183.104 222.844 182.273 223.265C175.765 226.553 168.822 228.883 162.609 232.847C157.971 235.804 152.504 237.111 147.862 240.245C143.639 243.094 138.505 244.234 134.235 247.2C130.868 249.539 126.64 250.295 123.326 252.927C121.789 254.148 119.675 254.507 117.951 255.494C116.369 256.401 114.553 256.684 113.134 258.175C111.811 259.563 109.628 259.952 107.835 260.803C107.558 260.935 107.335 261.181 107.087 261.375C107.653 261.643 107.995 261.502 108.325 261.336C111.461 259.761 114.717 258.5 117.667 256.465C121.211 254.022 125.563 253.123 129.131 250.512C132.442 248.09 136.895 247.698 139.976 244.7C140.409 244.279 141.489 245.491 141.471 244.087C142.536 244.871 142.583 243.505 143.146 243.234C147.56 241.106 152.334 239.709 156.274 236.603C156.802 236.187 157.637 235.664 158.149 235.888C159.307 236.395 159.08 234.887 159.883 234.88C160.55 234.875 161.159 234.364 161.794 234.077C165.423 232.435 169.068 230.828 172.669 229.129C173.595 228.692 174.86 228.72 175.231 227.31C175.273 227.153 175.932 227.305 176.286 227.243C176.757 227.161 177.566 227.125 177.605 226.871C177.76 225.866 178.366 226.408 178.834 226.292C179.299 226.176 179.522 225.337 179.991 225.125C180.748 224.782 181.433 223.938 182.479 224.64C182.674 223.672 183.469 223.502 184.152 223.202C184.844 222.897 185.489 222.279 186.38 222.942C186.46 221.815 187.37 221.751 188.055 221.438C192.584 219.37 197.181 217.449 201.642 215.24C206.031 213.066 210.931 211.913 214.752 208.582C215.574 208.949 216.132 208.299 216.769 208.08C217.592 207.8 218.23 207.046 219.032 206.679C219.96 206.255 220.808 205.421 222.032 205.991C222.404 204.448 223.831 204.519 224.843 204.056C236.794 198.591 248.777 193.193 260.748 187.77C261.622 187.374 262.469 186.916 272.692 181.927" fill="#67B246"/>
<path fill-rule="evenodd" clip-rule="evenodd" d="M132.186 192.722C132.154 193.909 132.142 194.414 132.125 195.067L134.726 193.89C134.706 193.789 134.686 193.689 134.665 193.59C134.377 193.627 134.086 193.649 133.804 193.703C133.529 193.755 133.267 193.842 132.931 193.931C132.799 193.53 132.539 193.081 132.629 192.959C133.073 192.342 133.535 191.699 134.125 191.276C135.448 190.326 136.867 189.527 138.214 188.614C138.883 188.159 139.48 187.586 140.082 187.09C141.526 188.129 139.754 188.367 140.019 189.158C142.264 189.102 143.05 186.52 145.034 186.032C143.656 186.221 142.218 186.266 141.213 187.741C141.223 187.324 141.094 186.785 141.272 186.515C141.636 185.963 142.14 185.518 142.639 185.101C143.455 184.42 144.805 184.662 145.301 183.399C145.689 182.413 147.04 182.767 147.42 181.486C147.611 180.842 148.893 180.722 149.778 180.322C149.855 182.428 148.334 182.269 147.462 182.931C146.675 183.528 145.993 184.284 145.487 185.314C147.366 184.216 149.416 183.35 151.079 181.951C152.658 180.62 154.061 179.043 155.771 177.765C154.46 178.259 153.147 178.755 151.835 179.249L151.661 178.863C154.12 177.152 156.581 175.439 159.041 173.729C159.147 173.881 159.252 174.035 159.357 174.188C158.275 175.139 157.194 176.092 156.114 177.043C157.359 176.682 158.883 176.901 159.472 175.269C161.975 174.28 163.66 171.718 166.593 171.415L167.551 173.534C167.211 173.972 166.37 173.418 166.228 174.379C166.16 174.834 164.991 174.471 165.239 175.576C165.307 175.875 165.014 176.528 164.908 176.508C163.166 176.188 162.386 177.916 161 178.301C160.567 178.421 160.07 178.34 159.504 178.353C159.639 178.846 159.806 179.466 159.973 180.088C158.868 179.684 158.631 181.756 157.358 180.808C157.424 181.322 157.479 181.741 157.553 182.311C156.391 182.348 155.105 181.947 154.322 183.186C154.576 183.339 154.821 183.486 155.431 183.855C153.622 184.354 152.057 184.789 150.44 185.237C150.13 186.31 149.84 187.308 149.614 188.09C148.753 188.465 147.863 187.451 147.425 188.813C147.084 189.878 146.142 190.72 145.295 191.419C144.751 191.868 143.913 191.97 143.173 192.053C142.648 192.112 142.541 192.862 141.677 192.537C140.774 192.197 141.433 193.468 141.267 193.957C141.111 194.412 140.833 194.983 140.461 195.115C138.967 195.639 138.016 197.14 136.419 197.437C136.337 197.451 136.225 197.353 136.128 197.306C135.429 199.856 132.788 200.073 131.552 201.836C130.519 203.308 128.402 202.963 127.816 204.862C124.358 207.608 120.607 209.945 117.602 213.326C115.141 214.051 113.871 216.531 111.764 217.848C109.819 219.066 107.926 220.641 106.391 222.378C103.611 225.521 99.8603 227.393 97.42 230.911C96.0644 231.151 95.691 232.31 95.2474 233.554C95.0018 234.241 94.1934 234.62 93.7316 235.05C92.0666 234.499 90.7309 233.362 89.1912 233.455C88.9459 232.296 88.6968 231.127 88.4011 229.737C90.8915 227.225 93.3029 224.284 96.3734 222.105C97.7944 221.096 98.7968 219.435 100.207 218.407C101.961 217.127 103.505 215.534 105.295 214.37C107.208 213.124 108.789 211.462 110.545 210.036C111.627 209.156 112.756 208.22 113.871 207.464C115.759 206.184 117.224 204.353 119.189 203.193C120.372 202.496 121.285 201.323 122.364 200.425C123.1 199.81 124.314 200.008 124.755 198.843C125.129 197.852 126.737 198.329 126.768 196.88C128.431 196.507 129.521 195.152 130.867 194.238C131.218 194 131.454 193.578 132.186 192.722" fill="#67B246"/>
</svg>

