<svg width="294" height="275" viewBox="0 0 294 275" fill="none" xmlns="http://www.w3.org/2000/svg">
<path fill-rule="evenodd" clip-rule="evenodd" d="M247.534 155.793C249.725 156.224 252.017 156.424 254.625 156.286C256.508 156.184 258.3 156.455 259.933 156.962C261.724 157.52 264.158 157.417 266.025 157.989C267.177 158.344 269.368 157.917 268.409 159.787C269.149 160.064 269.888 160.341 270.819 160.689C270.19 161.481 269.59 162.249 268.964 163.01C268.831 163.173 268.434 163.436 268.449 163.448C269.693 164.443 267.428 166.409 268.388 167.527C268.911 168.135 268.125 169.823 267.114 170.213C265.071 171.001 264.596 172.184 263.758 173.397C261.43 174.829 258.98 175.528 256.423 175.952C253.898 176.371 251.28 177.115 248.787 177.45C243.727 178.131 238.721 178.647 233.701 179.203C228.521 179.776 223.416 180.181 218.358 180.439C213.739 180.676 209.076 181.005 204.451 181.248C201.633 181.397 198.796 181.582 195.96 181.769C195.839 181.776 195.642 181.964 195.124 182.299C196.028 182.467 197.118 182.405 197.456 182.798C197.903 183.312 198.094 183.823 199.379 183.29C199.293 184.578 202.041 183.444 202.05 184.652C203.233 184.425 204.233 184.694 204.759 185.072C205.379 185.516 205.624 186.041 206.996 185.643C207.383 185.53 208.132 185.877 208.099 186.158C207.953 187.389 210.015 186.376 210.342 186.999C210.736 187.752 211.486 187.894 212.804 187.336C213.6 188.162 215.313 188.029 216.503 188.452C217.527 188.817 218.689 189.245 219.974 189.084C220.8 188.98 221.146 189.046 221.546 189.322C222.852 190.221 225.038 190.179 226.653 190.779C228.28 191.385 230.377 191.532 232.251 191.903C234.607 192.368 236.954 192.846 239.292 193.334C240.695 193.628 240.602 194.735 240.297 195.724C240.066 196.475 239.392 197.182 240.495 197.476C240.642 197.516 240.107 198.309 239.776 198.975C239.133 198.807 238.575 198.66 238.014 198.512C237.88 198.645 237.745 198.778 237.611 198.912C237.979 199.146 238.346 199.378 238.766 199.645C238.569 199.777 238.253 200.092 237.962 200.162C237.267 200.33 236.504 200.505 235.908 200.462C232.565 200.219 229.165 200.048 225.974 199.598C220.604 198.841 215.296 197.989 210.112 196.993C206.565 196.313 203.07 195.556 199.588 194.8C196.455 194.119 193.383 193.311 190.308 192.559C186.364 191.594 182.546 190.512 178.779 189.367C176.384 188.639 174.075 187.822 171.731 187.04C170.182 186.522 170.026 185.194 169.42 184.127C169.757 183.02 170.888 181.969 170.72 180.74C170.53 179.339 175.007 174.422 177.209 173.148C178.839 172.205 180.718 171.973 182.493 171.497C185.603 170.661 188.607 170.141 191.453 170.196C191.761 170.201 192.264 170.158 192.469 170.001C194.167 168.697 195.456 169.709 197.021 169.029C198.692 169.629 200.953 169.188 202.995 169.134C203.345 169.124 203.725 169.318 203.982 169.194C207.342 167.562 209.993 168.243 212.944 167.922C213.865 167.821 214.741 167.877 215.671 167.707C216.311 167.592 217.008 167.213 217.678 166.951C217.594 166.61 217.644 166.346 217.507 166.326C214.608 165.893 211.566 165.63 208.801 165.041C205.201 164.273 201.198 164.023 197.827 162.951C196.215 162.44 194.086 162.499 192.313 162.075C189.046 161.292 185.24 161.113 182.059 160.245C176.596 158.751 170.176 158.391 165.126 156.428C162.182 156.701 160.432 155.405 157.766 155.297C157.047 155.269 156.528 154.918 155.883 154.753C154.947 154.514 153.997 154.291 153.026 154.093C149.118 153.292 145.191 152.514 141.289 151.706C139.643 151.363 138.078 150.921 136.411 150.605C131.703 149.715 127.274 148.506 122.735 147.422C120.374 146.858 117.714 146.648 115.849 145.544C112.495 145.757 110.302 144.529 107.575 143.969C104.279 143.29 101.074 142.502 97.8447 141.743C93.6737 140.762 89.5126 139.771 85.3609 138.769C82.7261 138.132 80.1059 137.477 77.4965 136.811C74.3328 136.003 71.2605 135.096 68.0413 134.344C63.1487 133.199 58.4977 131.775 53.7647 130.448C47.855 128.791 41.9398 127.14 36.0768 125.433C32.8463 124.493 29.696 123.465 26.5478 122.438C22.7976 121.215 19.0172 120.018 15.3796 118.683C12.7579 117.719 10.2919 116.613 7.42204 115.885C6.72162 115.706 6.76202 114.699 6.34152 113.823C7.0605 113.762 7.56759 113.644 7.94246 113.7C9.07185 113.869 10.1517 114.107 11.4513 114.355C11.9258 112.236 7.90792 112.935 8.59879 111.033C9.46349 111.107 10.3956 111.188 11.3277 111.269C11.5047 111.084 11.682 110.901 11.859 110.717C11.4163 110.368 10.974 110.02 10.3859 109.557C11.6815 108.809 12.9474 108.078 14.6888 107.073C15.6733 107.263 17.6033 107.198 18.392 107.9C19.3483 108.752 21.7358 108.016 22.1384 109.328C22.2431 109.67 24.0184 108.554 23.9438 109.563C23.8617 110.645 25.9518 109.039 25.9505 109.973C25.9489 110.845 27.5656 110.124 27.6388 110.304C28.1069 111.437 30.0908 110.855 31.1117 111.341C32.2006 111.858 33.4864 112.229 34.8279 112.49C36.0244 112.723 37.0731 113.005 37.705 113.752C37.9273 114.016 38.6772 114.242 39.057 114.082C40.3263 113.547 40.3562 114.09 40.7841 114.48C41.0917 114.76 42.2008 114.495 42.557 114.76C42.9708 115.069 43.001 115.634 44.0787 114.97C44.9246 116.376 48.5727 115.072 49.0634 116.846C49.1116 117.019 49.5231 117.134 49.8255 117.098C53.3622 116.675 55.4347 118.05 58.129 118.656C62.0543 119.54 65.9871 120.416 69.8906 121.323C73.0224 122.052 76.1709 122.763 79.2083 123.597C80.8221 124.04 83.2082 123.778 83.6928 125.326C83.7259 125.433 84.0616 125.487 84.2694 125.436C88.4323 124.411 89.4954 127.065 92.6588 127.228C93.1891 127.254 93.5766 127.55 94.1193 127.513C98.9578 127.182 102.123 128.99 106.298 129.517C109.362 129.905 112.072 130.776 114.98 131.383C118.587 132.138 122.244 132.833 125.858 133.577C126.222 133.653 126.466 133.878 126.736 134.056C128.941 135.512 132.396 135.612 135.213 136.408C135.834 136.583 136.742 136.593 137.545 136.397C139.374 135.951 140.645 136.462 141.266 137.076C141.926 137.732 142.812 137.851 143.825 138.008C145.82 138.318 147.574 138.982 150.07 138.538C152.944 139.457 156.265 139.874 159.408 140.447C161.998 140.919 164.277 141.854 167.393 141.72C169.438 141.633 170.897 142.409 172.148 143.199C172.67 143.528 173.058 143.896 173.879 143.879C174.763 143.861 175.885 143.56 176.54 143.764C177.258 143.989 178 143.945 178.824 143.959C181.14 143.998 183.442 144.164 184.287 145.757C184.355 145.884 184.486 146.009 184.662 146.046C185.933 146.31 187.146 146.665 188.527 146.767C190.131 146.887 191.529 147.421 193.546 146.829C193.765 146.764 193.998 146.843 194.207 146.876C195.936 147.158 197.681 147.422 199.381 147.739C201.083 148.057 203.03 147.979 204.662 148.489C206.154 148.956 207.924 149.216 209.516 149.635C210.385 149.917 211.182 150.599 212.137 150.405C215.028 149.817 216.054 151.766 218.921 151.063C220.274 152.241 223.108 151.69 224.867 152.397C225.357 152.595 225.808 152.986 226.396 152.907C229.572 152.477 231.378 154.029 234.498 153.64C235.599 154.683 237.641 154.477 239.542 154.554C240.97 154.612 242.046 155.253 243.278 155.634C245.272 154.727 246.025 155.891 247.534 155.793" fill="#67B246"/>
<path fill-rule="evenodd" clip-rule="evenodd" d="M43.7182 83.3074C43.128 82.7405 42.5377 82.1736 41.6736 81.3452C42.6057 81.3744 42.9215 81.3833 43.3382 81.3964C43.3611 81.0663 43.3831 80.7551 43.4046 80.4326C44.4787 79.7 45.7226 78.7994 46.7172 79.2918C47.2256 79.5439 46.9889 80.4416 47.518 80.9153C47.6097 80.5434 47.7012 80.1707 47.8028 79.7542C50.0468 79.7694 50.9139 80.8133 51.2163 82.2674C52.0623 81.9216 52.655 81.6799 53.4903 81.3392C52.5829 82.9237 54.6027 82.8325 54.9719 83.9345C55.6204 83.3421 56.0378 82.9617 56.4548 82.5806C56.9889 82.7386 57.713 82.8395 58.2083 83.1261C58.9158 83.5355 60.9444 83.0986 59.9237 84.6772C59.8768 84.7512 60.0413 84.8912 60.1753 84.9163C60.4821 84.9752 60.9247 84.9048 61.144 85.0252C61.9469 85.4686 62.495 86.2017 63.4942 86.3776C64.3798 86.5333 65.776 86.008 66.8734 85.9491C67.5098 85.915 68.0798 86.1375 68.5328 86.3705C69.0155 86.6173 70.9172 87.4749 71.8067 87.2882C72.7745 87.0863 72.5743 87.5929 72.8693 87.8161C73.2471 88.1017 73.6124 88.437 74.1528 88.5531C74.5627 88.6414 75.2348 88.4209 75.7513 88.3432C75.3791 88.9722 75.0145 89.586 74.3789 90.6586C75.7703 89.8798 76.3685 90.58 77.5879 89.5423C78.3123 88.9261 80.2199 89.669 80.0581 90.7534C79.9464 91.4958 80.7507 91.0562 80.9976 91.2616C82.9944 89.7593 83.7008 90.8531 84.7553 91.1854C85.2774 91.3493 86.9683 91.8158 87.3466 91.8142C87.675 91.8151 87.97 91.8768 88.2523 91.9086C88.0954 92.1998 87.8891 92.4808 87.8267 92.7354C87.7915 92.8817 87.9906 92.9875 88.1443 93.191C88.5641 92.826 88.9494 92.4922 89.3078 92.1811C89.5949 92.1269 89.8982 92.0066 90.0468 92.052C91.1991 92.4026 92.2365 92.8881 93.4704 93.1372C96.4276 93.7352 99.4794 94.2178 102.482 94.762C106.207 95.4388 109.853 96.2081 113.812 96.5918C115.664 96.7706 116.96 96.8082 119.202 96.0608C118.87 97.2413 119.356 98.1669 118.444 99.4909C117.638 100.66 119.253 100.642 120.056 101.136C117.606 102.744 116.504 101.654 114.989 101.63C114.743 101.999 114.496 102.368 114.268 102.707C114.994 102.883 115.713 103.059 116.607 103.276C116.014 103.672 115.673 104.016 115.411 104.057C112.44 104.526 109.96 104.144 107.49 103.764C106.792 103.656 106.214 103.388 105.503 103.299C99.812 102.588 94.6524 101.255 89.4015 100.006C84.5 98.8392 79.9425 97.311 75.0442 96.1545C73.6272 95.8191 72.8761 94.7935 71.0091 94.9524C68.0888 92.9446 62.9739 93.0983 60.2455 90.8895C61.0685 90.0149 61.4018 90.4346 61.9215 90.834C62.2316 91.0713 62.9781 90.5661 63.6552 90.8471C66.5142 92.0302 69.7174 92.8934 72.8106 93.857C73.016 93.9209 73.3457 93.856 74.3034 93.8389C73.6417 93.3977 73.3276 93.2722 73.1596 93.063C72.5629 92.3076 70.8651 92.6781 70.172 91.8833C69.6195 91.2507 68.1932 91.0812 67.0001 90.9136C64.4514 90.5554 62.7429 89.3862 60.5848 88.6536C59.1275 88.1586 57.3555 87.9937 56.2181 87.1281C55.7767 86.7924 54.502 87.0589 53.6065 87.051C52.522 86.6631 51.4724 86.2379 50.3409 85.8998C49.3044 85.5879 48.8229 84.8492 47.2727 84.8716C45.7507 84.894 45.2333 83.5587 43.7182 83.3074" fill="#67B246"/>
<path fill-rule="evenodd" clip-rule="evenodd" d="M185.416 125.653C184.319 125.351 183.303 124.616 182.102 124.855C180.414 125.19 179.632 124.673 178.548 124.424C177.424 124.167 176.445 123.744 175.355 123.445C174.249 123.142 173.171 122.772 171.927 122.663C169.249 122.427 166.88 121.842 164.579 121.165C164.052 121.012 163.676 120.7 163.163 120.529C162.65 120.36 162.093 120.075 161.485 120.192C158.466 120.772 156.738 119.736 154.753 119.06C153.61 118.67 153.766 117.971 154.818 116.457C156.737 115.888 157.861 116.97 159.9 116.284C160.215 116.178 160.616 116.837 160.97 117.146C161.515 117.618 163.18 116.314 163.353 117.228C163.506 118.033 164.422 117.572 165.139 117.562C165.361 117.558 165.243 118.218 165.291 118.673C166.156 118.534 167.259 118.359 168.35 118.185L168.695 118.904C169.954 118.914 171.632 118.574 172.018 119.014C172.598 119.676 174.616 118.475 174.497 119.682C174.483 119.832 174.897 119.946 175.181 119.941C175.725 119.93 176.626 119.61 176.833 119.79C177.643 120.491 179.481 120.011 180.237 120.605C181.679 121.738 184.176 121.755 185.911 122.563C186.257 122.725 187.074 122.685 187.564 122.463C189.094 121.775 189.627 122.095 190.427 122.672C191.034 123.111 192.596 123.061 193.798 122.798C195.403 122.449 194.555 124.195 196.235 123.674C197.075 123.412 198.406 123.092 197.451 124.411C197.892 124.449 198.435 124.662 198.761 124.496C200.492 123.612 199.979 124.906 200.606 125.102C201.228 125.186 201.115 124.021 202.208 124.35C203.855 124.846 205.98 124.842 207.592 125.368C208.18 125.56 208.52 125.64 209.267 125.455C209.711 125.346 210.488 125.414 210.495 125.593C210.552 127.095 212.385 126.906 213.847 127.092C213.901 127.099 213.622 127.565 213.456 127.902C214.406 127.854 215.935 126.588 216.433 127.675C216.502 127.826 217.039 127.819 217.394 127.766C220.767 127.262 220.786 127.235 223.361 127.886C223.826 128.003 225.762 126.896 224.575 128.482C224.56 128.502 225.219 128.766 225.528 128.658C228.154 127.745 229.789 128.582 231.829 128.695C232.097 129.994 234.136 129.412 235.323 129.735C236.103 129.948 236.552 130.389 238.017 129.675C239.044 129.174 239.902 129.749 239.808 130.769C238.875 130.854 237.959 130.938 236.783 131.045C236.979 131.348 236.994 131.516 237.112 131.524C237.737 131.567 238.192 131.748 237.663 132.329C237.483 132.527 236.608 132.771 236.38 132.682C234.898 132.096 232.929 132.466 231.039 132.666C230.739 131.756 230.739 131.756 231.73 130.899C231.759 130.823 231.817 130.678 231.814 130.679C230.626 130.759 230.395 129.379 228.223 130.619C228.811 130.917 229.596 130.848 230.66 131.039C229.702 131.33 229.129 131.603 228.694 131.612C228.019 131.626 227.402 131.498 226.825 131.356C225.711 131.084 224.387 131.104 223.051 131.512C221.944 131.85 221.226 132.011 220.55 131.552C220.2 131.314 219.363 131.444 218.746 131.408C218.636 130.24 216.357 131.02 215.933 130.133C214.023 131.11 213.292 130.08 212.475 129.73C211.359 129.254 209.736 129.856 208.664 129.342C207.427 128.747 205.71 128.549 204.105 128.306C201.113 127.855 198.047 127.504 195.028 127.087C194.642 127.034 194.396 126.794 194.013 126.734C192.985 126.57 191.88 126.503 190.875 126.313C190.067 126.16 189.013 126.158 188.436 125.963C187.498 125.646 186.615 125.49 185.416 125.653" fill="#67B246"/>
<path fill-rule="evenodd" clip-rule="evenodd" d="M244.271 134.012C244.213 133.046 242.829 133.392 241.997 133.185C241.3 133.012 239.904 133.484 240.134 132.216C240.708 132.441 241.191 132.63 242.079 132.976C242.46 131.878 242.642 131.36 242.802 130.9C244.718 130.737 245.876 131.7 248.341 129.68C247.74 130.657 247.578 130.919 247.328 131.326C249.913 130.15 251.633 130.296 252.457 131.783C252.688 131.437 252.811 131.253 253.088 130.841C255.409 131.04 257.696 131.313 260.085 131.42C262.388 131.525 264.346 132.198 267.054 131.684C267.483 131.601 267.761 132.251 268.17 132.621C268.404 132.335 268.592 132.105 268.786 131.867C270.066 131.602 270.9 132.133 272.399 131.751C274.111 131.316 274.153 131.905 273.177 133.508C272.989 133.817 273.556 134.158 273.861 134.611C273.542 134.701 272.959 134.973 272.539 134.964C271.742 134.945 271.035 134.774 270.111 135.404C268.849 135.353 267.97 134.405 266.132 135.677C266.079 135.714 265.86 135.699 265.82 135.649C264.844 134.454 262.308 135.307 260.674 134.901C258.828 134.443 256.313 134.753 254.143 134.641C250.827 134.471 247.56 134.226 244.271 134.012" fill="#67B246"/>
<path fill-rule="evenodd" clip-rule="evenodd" d="M185.416 125.653C186.615 125.49 187.498 125.646 188.436 125.963C189.013 126.158 190.067 126.16 190.875 126.313C191.88 126.504 192.985 126.57 194.013 126.734C194.396 126.794 194.642 127.034 195.028 127.087C198.047 127.504 201.113 127.856 204.105 128.306C205.71 128.55 207.427 128.747 208.664 129.342C209.736 129.856 211.359 129.254 212.475 129.731C213.292 130.08 214.024 131.11 215.933 130.133C216.357 131.02 218.636 130.24 218.746 131.408C216.585 132.446 214.935 131.923 213.778 131.493C211.814 130.765 209.234 130.952 207.213 130.307C204.862 129.556 201.812 129.538 199.153 129.091C194.819 128.361 190.534 127.568 186.294 126.722C185.791 126.622 185.699 126.022 185.416 125.653" fill="#67B246"/>
<path fill-rule="evenodd" clip-rule="evenodd" d="M244.271 134.012C247.559 134.225 250.827 134.471 254.143 134.641C256.312 134.752 258.827 134.443 260.674 134.901C262.308 135.306 264.844 134.454 265.82 135.649C265.86 135.699 266.078 135.714 266.131 135.677C267.97 134.405 268.848 135.352 270.111 135.404C271.059 135.596 272.006 135.787 273.072 136.003C272.657 136.236 272.226 136.588 272.027 136.576C266.436 136.23 260.224 136.898 255.065 135.89C254.152 135.711 252.85 136.719 252.21 135.882C251.923 135.508 250.302 135.95 249.383 135.874C248.435 135.798 247.64 135.495 246.71 135.385C245.845 135.284 244.874 135.333 243.981 135.267C243.012 135.195 242.059 135.094 241.137 134.955C240.162 134.809 239.233 134.601 237.871 134.341C240.722 133.325 242.129 134.498 244.271 134.012" fill="#67B246"/>
<path fill-rule="evenodd" clip-rule="evenodd" d="M247.534 155.793C246.025 155.892 245.272 154.727 243.278 155.635C242.046 155.253 240.971 154.612 239.542 154.554C237.641 154.478 235.599 154.684 234.498 153.64C231.378 154.029 229.572 152.478 226.396 152.908C225.808 152.987 225.358 152.595 224.867 152.397C223.109 151.69 220.274 152.241 218.921 151.064C216.054 151.766 215.028 149.818 212.137 150.405C211.182 150.599 210.385 149.917 209.516 149.635C210.097 149.479 210.82 149.137 211.238 149.198C212.867 149.436 214.771 149.248 216.132 149.94C217.364 150.567 219.476 150.18 220.975 150.725C222.96 151.445 225.619 151.505 227.994 151.841C230.581 152.206 233.278 152.439 235.74 152.952C239.378 153.709 243.098 154.343 247.037 154.758L247.534 155.793Z" fill="#67B246"/>
<path fill-rule="evenodd" clip-rule="evenodd" d="M43.7183 83.3073C45.2334 83.5586 45.7508 84.8939 47.2728 84.8715C48.823 84.8491 49.3045 85.5879 50.341 85.8997C51.4725 86.2379 52.5221 86.663 53.6066 87.051C54.5311 88.1354 56.6046 88.1527 57.952 88.8513C58.6911 89.2339 59.6446 89.4347 60.9374 89.8618C59.9052 90.2454 59.2704 90.6192 58.9545 90.5724C57.8605 90.4118 56.7905 90.1881 55.8659 89.8381C52.1403 88.429 48.4748 86.9599 44.7769 85.5229C43.952 85.2019 43.0181 84.98 42.2558 84.6076C41.7564 84.3639 41.4745 83.9311 40.9274 83.4301C42.1863 83.3744 42.9528 83.3401 43.7183 83.3073" fill="#67B246"/>
</svg>

